<?xml version="1.0" encoding="UTF-8" standalone="no"?>
<!DOCTYPE svg PUBLIC "-//W3C//DTD SVG 1.1//EN" "http://www.w3.org/Graphics/SVG/1.1/DTD/svg11.dtd">
<svg xmlns="http://www.w3.org/2000/svg" version="1.1" viewBox="0.00 0.00 3183.00 988.00">
<g stroke-width="2.00" fill="none" stroke-linecap="butt">
<path stroke="#784214" vector-effect="non-scaling-stroke" d="
  M 1458.08 297.10
  L 1442.37 288.99
  A 0.83 0.83 0.0 0 0 1441.16 289.73
  L 1441.19 298.61"
/>
<path stroke="#784214" vector-effect="non-scaling-stroke" d="
  M 1405.16 370.97
  Q 1405.56 362.94 1404.20 356.04
  Q 1400.90 339.28 1387.84 327.92
  Q 1381.10 322.05 1376.27 319.70
  Q 1354.99 309.36 1334.37 298.48"
/>
<path stroke="#784214" vector-effect="non-scaling-stroke" d="
  M 1643.24 172.22
  C 1633.13 168.77 1625.24 162.96 1616.99 156.04
  Q 1614.34 153.81 1594.63 137.33
  Q 1593.77 136.61 1593.91 137.72
  C 1594.17 139.92 1593.48 142.14 1593.41 143.79
  Q 1592.93 154.25 1594.23 162.99
  Q 1596.38 177.45 1607.23 185.44
  Q 1611.60 188.66 1618.76 191.06
  Q 1625.90 193.45 1631.27 194.29
  Q 1653.78 197.82 1678.55 197.99
  A 1.15 1.15 0.0 0 0 1679.69 197.06
  Q 1683.88 175.19 1687.87 153.62
  Q 1690.97 136.87 1692.05 122.29
  C 1692.80 112.17 1691.46 101.11 1683.86 93.79
  C 1678.68 88.80 1669.67 85.65 1662.26 83.72
  Q 1655.55 81.97 1648.78 80.70
  Q 1632.26 77.61 1606.04 73.64
  Q 1605.53 73.56 1605.41 74.06
  Q 1599.15 101.57 1595.35 125.53
  C 1595.14 126.84 1595.26 128.69 1594.53 130.51
  A 0.63 0.63 0.0 0 0 1595.20 131.37
  Q 1595.90 131.28 1596.54 130.81
  Q 1604.78 124.86 1621.28 113.54
  C 1625.06 110.95 1629.35 107.77 1633.75 106.92
  Q 1635.54 106.57 1637.99 108.07
  C 1652.78 117.15 1665.29 129.65 1672.01 145.34
  Q 1672.21 145.82 1672.11 146.32
  Q 1671.75 148.14 1670.89 149.42
  Q 1663.90 159.81 1651.68 168.42
  Q 1647.68 171.24 1644.20 172.24
  Q 1643.72 172.38 1643.24 172.22"
/>
</g>
<path fill="#f08428" d="
  M 1677.12 0.00
  L 1693.54 1.87
  A 1.08 1.07 69.1 0 1 1694.12 2.13
  Q 1694.73 2.68 1695.44 2.47
  Q 1695.80 2.36 1696.71 2.57
  Q 1713.14 6.37 1723.25 11.04
  Q 1749.66 23.24 1773.13 35.91
  Q 1784.51 42.05 1792.90 49.68
  Q 1795.96 52.46 1798.73 58.19
  Q 1799.83 60.48 1799.85 64.25
  Q 1799.88 69.94 1799.76 70.73
  Q 1799.14 74.72 1795.82 82.06
  Q 1794.87 84.18 1790.10 92.13
  Q 1787.28 96.82 1783.78 101.83
  Q 1767.60 124.96 1759.64 135.39
  Q 1749.85 148.21 1743.90 156.41
  Q 1734.05 169.97 1727.46 184.68
  Q 1722.62 195.49 1720.71 208.24
  Q 1720.30 210.99 1720.40 213.00
  Q 1720.43 213.52 1720.23 213.99
  C 1719.45 215.81 1720.20 217.42 1719.51 219.20
  C 1718.23 222.47 1714.73 225.51 1713.15 226.89
  Q 1705.20 233.79 1689.52 239.21
  C 1688.40 239.60 1686.69 239.26 1685.90 240.00
  A 0.74 0.72 -63.2 0 1 1685.34 240.19
  Q 1682.66 239.96 1680.32 240.30
  Q 1677.24 240.74 1675.67 240.74
  Q 1666.75 240.70 1662.64 240.76
  Q 1662.13 240.76 1661.90 240.93
  Q 1661.68 241.09 1661.51 241.20
  Q 1661.18 241.42 1660.78 241.41
  Q 1640.28 241.22 1630.72 241.46
  C 1629.91 241.48 1628.60 241.91 1627.59 241.91
  Q 1574.75 242.00 1561.01 241.91
  C 1560.08 241.90 1559.04 241.36 1557.98 241.36
  Q 1536.82 241.35 1501.13 241.36
  Q 1500.62 241.36 1500.54 241.86
  Q 1500.23 243.76 1500.64 245.53
  Q 1501.11 247.54 1501.11 249.06
  Q 1501.09 256.72 1501.09 260.49
  Q 1501.09 263.34 1500.70 265.55
  Q 1499.98 269.64 1499.82 270.53
  Q 1496.64 288.43 1478.96 293.84
  Q 1474.21 295.29 1473.81 295.40
  C 1472.57 295.74 1470.81 295.48 1469.83 296.07
  Q 1469.41 296.33 1468.91 296.36
  L 1458.08 297.10
  L 1442.37 288.99
  A 0.83 0.83 0.0 0 0 1441.16 289.73
  L 1441.19 298.61
  Q 1433.92 300.53 1427.58 304.41
  Q 1424.88 306.07 1422.93 308.16
  C 1420.95 310.29 1419.03 311.74 1417.55 314.09
  Q 1414.00 319.71 1412.64 326.25
  C 1412.47 327.08 1412.66 328.62 1412.29 329.62
  C 1411.36 332.14 1411.86 336.79 1412.23 338.02
  C 1412.70 339.60 1412.13 341.05 1412.96 342.58
  Q 1413.20 343.03 1413.14 343.54
  Q 1412.96 345.13 1413.32 346.58
  Q 1413.75 348.33 1413.75 349.53
  Q 1413.75 356.19 1412.47 360.76
  Q 1410.80 366.71 1405.16 370.97
  Q 1405.56 362.94 1404.20 356.04
  Q 1400.90 339.28 1387.84 327.92
  Q 1381.10 322.05 1376.27 319.70
  Q 1354.99 309.36 1334.37 298.48
  Q 1337.79 291.03 1344.27 288.59
  Q 1345.62 288.08 1349.94 286.89
  Q 1351.20 286.54 1352.57 286.57
  C 1353.51 286.58 1354.87 286.69 1356.11 286.32
  Q 1358.51 285.60 1361.10 286.05
  Q 1364.19 286.58 1365.97 286.58
  Q 1380.03 286.56 1395.24 286.59
  A 0.86 0.85 64.6 0 1 1395.79 286.79
  Q 1396.30 287.22 1397.30 287.19
  Q 1399.43 287.12 1402.61 288.33
  Q 1403.06 288.50 1403.54 288.40
  Q 1404.38 288.22 1405.03 288.67
  Q 1405.46 288.98 1405.99 288.97
  Q 1408.11 288.94 1409.24 289.26
  C 1412.03 290.04 1414.74 289.60 1419.02 289.66
  C 1420.69 289.68 1422.60 288.86 1423.88 288.51
  Q 1430.88 286.60 1433.70 279.48
  Q 1435.44 275.09 1435.73 266.38
  C 1435.80 264.13 1434.88 262.10 1435.10 259.93
  Q 1435.22 258.69 1434.68 256.16
  Q 1434.37 254.70 1434.51 252.31
  Q 1434.54 251.74 1433.97 251.74
  L 1432.15 251.74
  Q 1431.63 251.74 1431.15 251.53
  Q 1429.71 250.92 1428.02 251.14
  Q 1427.49 251.21 1427.01 250.99
  Q 1425.48 250.31 1423.56 250.54
  A 1.69 1.62 -33.2 0 1 1422.59 250.36
  Q 1421.30 249.68 1419.28 249.93
  Q 1418.76 250.00 1418.31 249.74
  Q 1417.14 249.06 1415.57 249.32
  Q 1415.07 249.40 1414.63 249.16
  C 1413.53 248.56 1412.17 248.71 1411.21 248.57
  Q 1379.95 244.07 1348.69 239.63
  Q 1348.64 239.62 1347.30 239.60
  Q 1346.64 239.59 1346.09 239.28
  Q 1345.65 239.04 1345.16 238.99
  Q 1327.97 237.32 1312.26 231.63
  Q 1302.11 227.96 1293.49 221.54
  Q 1293.37 221.45 1292.11 220.17
  C 1291.46 219.52 1290.62 219.38 1290.02 218.77
  C 1288.36 217.09 1286.59 215.63 1285.33 213.63
  C 1284.77 212.74 1283.98 212.18 1283.44 211.45
  Q 1277.35 203.18 1275.72 193.54
  Q 1274.00 183.38 1276.05 173.29
  Q 1278.58 160.81 1285.09 149.10
  Q 1291.98 136.71 1300.06 126.55
  Q 1321.08 100.13 1353.20 91.22
  Q 1490.95 52.99 1625.53 8.59
  Q 1638.33 4.36 1650.32 2.28
  Q 1650.62 2.23 1651.02 2.01
  Q 1651.49 1.75 1651.76 1.78
  Q 1654.06 2.11 1655.59 1.32
  Q 1656.05 1.08 1656.56 1.16
  Q 1658.73 1.49 1660.21 0.80
  A 1.99 1.94 34.4 0 1 1661.18 0.63
  Q 1665.35 0.99 1668.93 0.00
  L 1677.12 0.00
  Z
  M 1643.24 172.22
  C 1633.13 168.77 1625.24 162.96 1616.99 156.04
  Q 1614.34 153.81 1594.63 137.33
  Q 1593.77 136.61 1593.91 137.72
  C 1594.17 139.92 1593.48 142.14 1593.41 143.79
  Q 1592.93 154.25 1594.23 162.99
  Q 1596.38 177.45 1607.23 185.44
  Q 1611.60 188.66 1618.76 191.06
  Q 1625.90 193.45 1631.27 194.29
  Q 1653.78 197.82 1678.55 197.99
  A 1.15 1.15 0.0 0 0 1679.69 197.06
  Q 1683.88 175.19 1687.87 153.62
  Q 1690.97 136.87 1692.05 122.29
  C 1692.80 112.17 1691.46 101.11 1683.86 93.79
  C 1678.68 88.80 1669.67 85.65 1662.26 83.72
  Q 1655.55 81.97 1648.78 80.70
  Q 1632.26 77.61 1606.04 73.64
  Q 1605.53 73.56 1605.41 74.06
  Q 1599.15 101.57 1595.35 125.53
  C 1595.14 126.84 1595.26 128.69 1594.53 130.51
  A 0.63 0.63 0.0 0 0 1595.20 131.37
  Q 1595.90 131.28 1596.54 130.81
  Q 1604.78 124.86 1621.28 113.54
  C 1625.06 110.95 1629.35 107.77 1633.75 106.92
  Q 1635.54 106.57 1637.99 108.07
  C 1652.78 117.15 1665.29 129.65 1672.01 145.34
  Q 1672.21 145.82 1672.11 146.32
  Q 1671.75 148.14 1670.89 149.42
  Q 1663.90 159.81 1651.68 168.42
  Q 1647.68 171.24 1644.20 172.24
  Q 1643.72 172.38 1643.24 172.22
  Z"
/>
<path fill="#000000" d="
  M 1644.20 172.24
  Q 1647.68 171.24 1651.68 168.42
  Q 1663.90 159.81 1670.89 149.42
  Q 1671.75 148.14 1672.11 146.32
  Q 1672.21 145.82 1672.01 145.34
  C 1665.29 129.65 1652.78 117.15 1637.99 108.07
  Q 1635.54 106.57 1633.75 106.92
  C 1629.35 107.77 1625.06 110.95 1621.28 113.54
  Q 1604.78 124.86 1596.54 130.81
  Q 1595.90 131.28 1595.20 131.37
  A 0.63 0.63 0.0 0 1 1594.53 130.51
  C 1595.26 128.69 1595.14 126.84 1595.35 125.53
  Q 1599.15 101.57 1605.41 74.06
  Q 1605.53 73.56 1606.04 73.64
  Q 1632.26 77.61 1648.78 80.70
  Q 1655.55 81.97 1662.26 83.72
  C 1669.67 85.65 1678.68 88.80 1683.86 93.79
  C 1691.46 101.11 1692.80 112.17 1692.05 122.29
  Q 1690.97 136.87 1687.87 153.62
  Q 1683.88 175.19 1679.69 197.06
  A 1.15 1.15 0.0 0 1 1678.55 197.99
  Q 1653.78 197.82 1631.27 194.29
  Q 1625.90 193.45 1618.76 191.06
  Q 1611.60 188.66 1607.23 185.44
  Q 1596.38 177.45 1594.23 162.99
  Q 1592.93 154.25 1593.41 143.79
  C 1593.48 142.14 1594.17 139.92 1593.91 137.72
  Q 1593.77 136.61 1594.63 137.33
  Q 1614.34 153.81 1616.99 156.04
  C 1625.24 162.96 1633.13 168.77 1643.24 172.22
  Q 1643.72 172.38 1644.20 172.24
  Z"
/>
<path fill="#000000" d="
  M 860.23 542.94
  A 0.24 0.23 -90.0 0 0 860.46 543.18
  L 996.75 543.18
  A 0.31 0.31 0.0 0 1 997.06 543.49
  L 997.06 633.22
  A 0.40 0.39 -90.0 0 1 996.67 633.62
  Q 907.71 633.61 818.63 633.62
  Q 818.02 633.62 816.85 633.11
  Q 816.38 632.90 815.88 632.98
  Q 814.56 633.18 813.64 632.63
  Q 813.20 632.36 812.70 632.38
  Q 812.03 632.40 811.82 632.36
  Q 800.52 629.99 790.71 622.07
  Q 780.94 614.18 775.55 603.94
  Q 772.46 598.06 770.60 589.44
  C 770.30 588.05 770.67 586.52 770.13 585.49
  Q 769.80 584.87 769.80 583.94
  Q 769.80 580.69 769.80 289.41
  A 0.44 0.43 -76.6 0 1 770.43 289.02
  C 789.69 298.65 802.17 304.78 808.54 308.23
  Q 814.05 311.22 834.16 321.20
  Q 838.02 323.12 845.87 329.98
  Q 846.08 330.16 847.36 331.97
  C 848.03 332.90 848.82 333.41 849.45 334.25
  Q 856.40 343.49 858.93 353.61
  Q 860.27 358.97 860.25 370.15
  Q 860.11 459.93 860.23 542.94
  Z"
/>
<path fill="#000000" d="
  M 1081.50 379.26
  C 1080.13 378.54 1078.63 379.09 1076.86 378.48
  Q 1075.82 378.13 1074.48 377.87
  Q 1072.85 377.56 1072.07 377.30
  Q 1060.19 373.27 1051.29 364.85
  Q 1049.38 363.05 1047.24 360.19
  C 1045.77 358.22 1043.90 355.94 1042.63 353.35
  Q 1040.61 349.25 1035.25 339.00
  Q 1032.25 333.25 1016.90 302.40
  C 1016.35 301.29 1015.51 300.38 1014.95 299.19
  Q 1012.59 294.20 1010.23 289.93
  Q 1009.72 289.00 1010.77 289.00
  L 1285.09 289.00
  A 0.33 0.33 0.0 0 1 1285.42 289.33
  L 1285.42 378.95
  A 0.48 0.47 90.0 0 1 1284.95 379.43
  Q 1183.67 379.43 1082.21 379.43
  Q 1081.82 379.43 1081.50 379.26
  Z"
/>
<path fill="#000000" d="
  M 1334.37 298.48
  Q 1354.99 309.36 1376.27 319.70
  Q 1381.10 322.05 1387.84 327.92
  Q 1400.90 339.28 1404.20 356.04
  Q 1405.56 362.94 1405.16 370.97
  L 1405.16 633.23
  A 0.39 0.39 0.0 0 1 1404.77 633.62
  L 1315.11 633.62
  A 0.38 0.37 90.0 0 1 1314.74 633.24
  L 1314.74 289.46
  A 0.50 0.49 13.4 0 1 1315.46 289.02
  L 1334.37 298.48
  Z"
/>
<path fill="#000000" d="
  M 1458.08 297.10
  Q 1475.95 306.10 1493.55 315.01
  C 1497.18 316.85 1500.48 318.64 1503.35 320.08
  Q 1509.10 322.96 1512.06 325.28
  Q 1527.65 337.51 1531.39 357.52
  C 1531.74 359.43 1531.37 361.45 1531.90 363.39
  Q 1532.23 364.57 1532.23 365.68
  Q 1532.23 401.16 1532.22 415.73
  A 0.38 0.37 0.0 0 0 1532.60 416.10
  L 1576.78 416.10
  A 1.21 1.20 10.1 0 0 1577.91 415.32
  Q 1585.87 394.20 1592.37 377.12
  Q 1592.63 376.41 1592.72 376.04
  Q 1592.77 375.80 1592.86 375.57
  L 1625.52 289.48
  A 0.75 0.74 10.1 0 1 1626.22 289.00
  L 1715.49 289.00
  A 0.71 0.71 0.0 0 1 1716.15 289.97
  L 1649.78 460.78
  Q 1649.60 461.24 1649.78 461.70
  L 1716.24 632.74
  A 0.65 0.64 79.4 0 1 1715.64 633.62
  L 1626.53 633.62
  A 1.28 1.27 79.7 0 1 1625.34 632.79
  L 1577.85 507.27
  A 1.15 1.14 -10.4 0 0 1576.78 506.54
  L 1532.72 506.54
  Q 1532.23 506.54 1532.23 507.03
  L 1532.23 633.03
  A 0.59 0.59 0.0 0 1 1531.64 633.62
  L 1441.62 633.62
  A 0.43 0.42 -90.0 0 1 1441.20 633.19
  L 1441.19 298.61
  L 1441.16 289.73
  A 0.83 0.83 0.0 0 1 1442.37 288.99
  L 1458.08 297.10
  Z"
/>
<path fill="#000000" d="
  M 1854.49 459.17
  Q 1854.07 455.00 1853.05 458.90
  L 1807.61 632.56
  Q 1807.33 633.62 1806.24 633.62
  L 1717.23 633.62
  A 0.52 0.52 0.0 0 1 1716.73 632.97
  Q 1724.77 602.35 1728.38 588.51
  Q 1731.22 577.60 1795.14 333.13
  Q 1797.50 324.09 1804.18 313.89
  Q 1804.38 313.59 1805.60 312.33
  C 1806.41 311.51 1806.50 310.59 1807.22 309.98
  C 1809.59 307.98 1813.35 303.60 1816.66 301.09
  Q 1827.92 292.57 1841.94 289.81
  Q 1842.13 289.78 1844.10 289.66
  C 1845.22 289.60 1845.96 289.03 1847.00 289.02
  Q 1851.65 288.98 1859.02 289.00
  C 1861.18 289.01 1862.77 289.90 1864.91 289.59
  Q 1865.17 289.55 1865.49 289.71
  Q 1865.62 289.78 1865.85 289.93
  Q 1866.02 290.05 1866.23 290.09
  Q 1870.96 291.02 1875.22 292.68
  Q 1885.27 296.61 1893.99 304.11
  Q 1907.23 315.49 1911.95 333.60
  Q 1930.66 405.39 1985.33 614.20
  Q 1988.41 625.97 1990.16 633.14
  Q 1990.28 633.62 1989.78 633.62
  L 1900.14 633.62
  Q 1899.62 633.62 1899.49 633.11
  Q 1861.12 484.85 1855.19 462.27
  Q 1854.57 459.90 1854.49 459.17
  Z"
/>
<path fill="#000000" d="
  M 2322.27 488.10
  Q 2321.46 489.22 2320.86 490.77
  Q 2319.99 493.04 2319.76 493.52
  Q 2315.12 503.48 2306.73 521.72
  Q 2291.27 555.37 2272.16 596.64
  Q 2270.98 599.18 2267.32 604.43
  Q 2264.45 608.55 2261.57 611.53
  Q 2249.34 624.18 2234.75 629.15
  Q 2232.63 629.88 2227.69 631.72
  Q 2227.19 631.90 2226.67 631.81
  Q 2225.45 631.60 2224.71 632.28
  Q 2224.29 632.68 2223.76 632.43
  Q 2222.81 631.98 2221.97 632.75
  A 1.12 1.09 -62.3 0 1 2221.09 633.04
  Q 2219.53 632.87 2218.15 633.19
  Q 2216.32 633.62 2215.32 633.62
  C 2208.73 633.62 2204.24 634.07 2202.07 633.18
  C 2201.10 632.79 2199.77 633.08 2198.68 632.91
  Q 2190.30 631.59 2182.92 628.37
  Q 2160.93 618.78 2149.21 598.97
  Q 2147.18 595.54 2140.53 580.96
  Q 2118.53 532.71 2097.97 487.74
  Q 2097.36 486.41 2097.36 487.88
  L 2097.36 633.25
  A 0.37 0.37 0.0 0 1 2096.99 633.62
  L 2007.33 633.62
  A 0.40 0.40 0.0 0 1 2006.93 633.22
  L 2006.93 337.02
  A 1.61 1.57 62.0 0 1 2007.18 336.16
  C 2007.80 335.16 2007.49 334.19 2007.65 333.30
  Q 2010.09 319.95 2018.62 309.36
  Q 2027.65 298.15 2040.91 292.63
  Q 2045.59 290.69 2051.67 289.64
  Q 2052.16 289.55 2052.64 289.67
  Q 2053.34 289.84 2053.82 289.37
  Q 2054.20 289.02 2054.71 289.02
  Q 2058.14 288.99 2067.33 289.01
  C 2069.00 289.01 2070.16 289.86 2071.91 289.58
  Q 2072.42 289.50 2072.80 289.85
  Q 2073.37 290.39 2074.79 290.20
  Q 2075.28 290.13 2075.71 290.39
  Q 2076.54 290.87 2078.03 291.22
  Q 2079.85 291.65 2080.41 291.86
  Q 2088.77 295.03 2096.02 300.37
  C 2097.00 301.09 2097.85 302.24 2099.02 302.96
  C 2100.51 303.87 2101.96 305.24 2102.78 306.57
  Q 2103.47 307.69 2104.70 308.91
  Q 2105.94 310.13 2106.47 310.90
  Q 2109.99 316.02 2115.02 327.00
  Q 2162.22 429.91 2209.74 533.55
  A 0.50 0.50 0.0 0 0 2210.65 533.55
  Q 2259.04 428.03 2307.54 322.26
  Q 2313.53 309.18 2320.93 302.76
  Q 2321.27 302.46 2322.49 301.72
  C 2323.30 301.22 2323.74 300.50 2324.41 300.01
  Q 2334.69 292.29 2347.05 289.79
  C 2347.89 289.62 2349.34 289.79 2350.44 289.25
  Q 2350.95 289.00 2351.51 289.00
  L 2365.17 289.00
  Q 2365.61 289.00 2366.00 289.22
  Q 2367.16 289.86 2368.59 289.59
  Q 2369.23 289.46 2369.83 289.90
  A 1.57 1.54 68.8 0 0 2370.45 290.18
  Q 2379.65 291.93 2386.73 296.53
  Q 2394.15 301.34 2399.98 307.88
  C 2406.93 315.68 2412.76 327.64 2412.65 338.47
  Q 2412.65 338.84 2412.78 338.98
  Q 2412.88 339.11 2412.99 339.21
  A 0.73 0.72 -67.8 0 1 2413.20 339.72
  L 2413.20 633.27
  A 0.35 0.34 90.0 0 1 2412.86 633.62
  L 2322.99 633.62
  A 0.18 0.18 0.0 0 1 2322.81 633.44
  L 2322.81 488.28
  Q 2322.81 487.34 2322.27 488.10
  Z"
/>
<path fill="#000000" d="
  M 1100.91 507.07
  L 1100.91 542.99
  A 0.19 0.19 0.0 0 0 1101.10 543.18
  L 1285.05 543.18
  Q 1285.42 543.18 1285.42 543.55
  L 1285.42 633.21
  A 0.41 0.41 0.0 0 1 1285.01 633.62
  Q 1174.25 633.61 1063.47 633.62
  C 1061.38 633.62 1059.94 633.09 1057.83 632.94
  Q 1056.62 632.85 1055.55 632.63
  Q 1047.21 630.93 1040.45 627.13
  Q 1036.16 624.72 1035.56 624.38
  Q 1034.15 623.57 1033.42 622.64
  C 1032.57 621.55 1031.59 621.47 1030.66 620.49
  C 1028.03 617.75 1023.48 613.70 1020.91 610.11
  Q 1016.03 603.32 1013.06 595.25
  Q 1012.64 594.12 1012.21 592.20
  Q 1011.53 589.23 1011.47 589.11
  C 1010.78 587.58 1011.39 586.49 1010.63 584.89
  A 1.83 1.83 0.0 0 1 1010.45 583.94
  Q 1010.63 581.26 1010.34 579.64
  Q 1009.89 577.19 1009.89 575.33
  Q 1009.88 495.52 1009.89 415.85
  A 0.40 0.39 90.0 0 1 1010.28 415.45
  L 1240.69 415.45
  A 0.74 0.74 0.0 0 1 1241.43 416.19
  L 1241.43 505.84
  A 0.70 0.69 90.0 0 1 1240.74 506.54
  L 1101.43 506.54
  Q 1100.91 506.54 1100.91 507.07
  Z"
/>
<path fill="#1a1a1a" d="
  M 852.54 737.87
  L 830.77 763.46
  Q 830.42 763.87 829.88 763.87
  L 818.13 763.87
  Q 817.54 763.87 817.85 763.36
  L 834.05 737.28
  A 0.82 0.82 0.0 0 1 834.75 736.89
  L 853.20 736.89
  A 0.28 0.27 -78.1 0 1 853.45 737.28
  Q 853.33 737.54 853.03 737.59
  Q 852.74 737.65 852.54 737.87
  Z"
/>
<path fill="#1a1a1a" d="
  M 1420.60 738.15
  Q 1420.31 738.21 1420.11 738.43
  L 1398.47 763.88
  Q 1398.12 764.29 1397.59 764.29
  L 1385.90 764.29
  Q 1385.32 764.29 1385.62 763.78
  L 1401.73 737.85
  A 0.82 0.81 15.7 0 1 1402.42 737.46
  L 1420.77 737.45
  A 0.28 0.27 -78.1 0 1 1421.02 737.84
  Q 1420.90 738.10 1420.60 738.15
  Z"
/>
<path fill="#1a1a1a" d="
  M 233.97 779.53
  Q 233.84 781.16 233.38 782.76
  Q 232.46 785.90 230.64 793.70
  A 0.65 0.65 0.0 0 1 229.64 794.09
  C 226.12 791.68 220.65 788.65 216.38 788.22
  Q 215.89 788.17 215.56 787.88
  Q 215.20 787.56 214.72 787.64
  Q 213.67 787.82 211.83 787.28
  Q 209.04 786.48 203.87 787.28
  Q 189.94 789.46 186.09 803.16
  Q 184.15 810.06 185.69 817.30
  Q 187.23 824.54 192.28 829.95
  Q 193.28 831.02 194.72 831.88
  C 195.74 832.48 196.25 833.42 197.59 834.26
  C 201.32 836.60 203.44 838.01 206.70 839.64
  Q 213.02 842.80 218.99 846.71
  Q 221.58 848.41 224.79 851.41
  Q 228.71 855.07 229.92 856.59
  Q 237.47 866.04 238.86 878.11
  C 238.95 878.90 238.56 880.44 239.31 881.24
  Q 239.71 881.67 239.68 882.25
  L 238.93 895.97
  Q 238.90 896.42 238.63 896.79
  Q 238.01 897.61 238.31 898.97
  A 0.97 0.95 -30.4 0 1 238.07 899.85
  C 237.46 900.51 237.66 901.31 237.49 901.96
  Q 235.45 909.77 230.76 916.19
  Q 230.04 917.18 229.03 918.12
  C 228.21 918.88 227.76 919.98 226.85 920.83
  Q 218.81 928.38 206.76 930.80
  Q 205.43 931.07 203.90 931.16
  Q 201.87 931.27 201.11 931.43
  Q 197.45 932.19 194.75 931.65
  Q 191.94 931.07 190.74 931.13
  Q 189.31 931.20 188.52 930.81
  Q 188.30 930.71 186.09 930.30
  Q 176.25 928.45 167.46 922.43
  Q 166.37 921.69 167.19 920.88
  Q 167.47 920.60 167.61 919.54
  Q 167.98 916.57 170.63 905.46
  Q 170.75 904.97 171.15 905.27
  Q 173.43 906.98 178.64 910.14
  C 180.14 911.05 182.31 911.62 184.09 912.44
  Q 185.65 913.15 187.62 913.61
  Q 190.40 914.27 191.35 914.60
  Q 191.83 914.77 192.33 914.67
  Q 193.49 914.45 194.31 915.00
  Q 194.75 915.30 195.28 915.30
  L 201.19 915.30
  Q 201.68 915.30 202.10 915.05
  C 203.24 914.36 204.32 914.82 205.58 914.47
  Q 210.51 913.09 213.41 910.89
  Q 220.31 905.66 222.74 896.83
  Q 223.11 895.51 223.03 894.67
  C 222.92 893.52 223.64 893.01 223.63 891.78
  Q 223.61 887.83 223.63 886.09
  A 20.45 7.88 60.4 0 0 222.73 880.08
  Q 222.46 879.09 221.28 875.59
  C 219.84 871.36 215.44 866.51 212.33 864.21
  C 208.59 861.44 203.18 858.17 198.44 855.98
  Q 193.13 853.53 187.67 849.58
  Q 186.80 848.96 186.32 848.35
  C 185.84 847.74 185.06 847.64 184.66 847.28
  Q 175.91 839.34 172.36 830.24
  Q 169.14 821.99 169.18 810.68
  Q 169.19 809.09 169.63 808.01
  C 170.09 806.85 169.67 805.59 169.92 804.36
  Q 171.81 794.92 174.99 789.46
  Q 183.25 775.28 199.75 771.41
  Q 200.65 771.20 202.14 771.13
  Q 203.07 771.08 204.43 770.85
  Q 209.30 770.03 211.55 770.60
  Q 212.84 770.94 215.76 771.24
  Q 225.24 772.23 234.26 777.51
  A 0.83 0.83 0.0 0 1 234.47 778.77
  L 234.11 779.20
  A 0.62 0.58 69.8 0 0 233.97 779.53
  Z"
/>
<path fill="#1a1a1a" d="
  M 702.71 913.06
  Q 703.04 912.73 703.55 912.86
  Q 704.30 913.04 704.50 912.96
  L 714.13 908.72
  A 0.37 0.37 0.0 0 1 714.64 908.99
  L 717.57 924.18
  Q 717.65 924.64 717.24 924.85
  Q 708.89 929.13 701.12 930.32
  Q 698.62 930.70 697.97 931.00
  Q 697.51 931.22 697.01 931.18
  Q 694.29 931.00 693.45 931.30
  C 690.55 932.35 687.10 931.78 681.93 931.81
  Q 681.09 931.82 679.67 931.37
  Q 678.53 931.02 677.31 931.21
  A 1.11 1.08 61.1 0 1 676.41 930.94
  Q 675.84 930.42 674.72 930.59
  Q 674.24 930.66 673.78 930.48
  Q 672.54 929.98 670.00 929.49
  C 668.06 929.13 666.13 928.03 663.87 927.22
  Q 662.55 926.74 661.40 925.91
  Q 661.09 925.69 658.84 924.56
  Q 656.84 923.55 655.56 922.48
  C 654.46 921.55 652.65 920.76 651.66 919.72
  Q 650.17 918.15 646.80 914.81
  Q 645.13 913.15 644.01 911.53
  Q 643.40 910.65 642.35 909.30
  Q 641.05 907.63 640.73 907.13
  Q 633.02 895.15 630.02 880.87
  Q 629.99 880.71 629.49 879.10
  Q 629.12 877.90 629.27 877.23
  Q 629.39 876.73 629.06 876.34
  Q 628.47 875.62 628.67 874.24
  Q 628.74 873.73 628.56 873.24
  Q 627.83 871.23 628.09 869.07
  C 628.21 868.12 627.43 867.55 627.43 866.63
  Q 627.43 861.91 627.41 860.60
  Q 627.41 860.11 627.13 859.69
  Q 627.09 859.63 626.98 859.46
  Q 626.83 859.24 626.83 858.98
  L 626.83 846.51
  A 1.56 1.51 -28.2 0 1 627.11 845.63
  Q 627.24 845.46 627.33 845.34
  Q 627.41 845.25 627.41 845.05
  Q 627.44 840.58 627.41 839.53
  A 2.04 2.00 58.5 0 1 627.63 838.57
  C 628.31 837.25 627.98 835.64 628.16 834.48
  Q 628.35 833.17 629.22 828.52
  Q 632.12 813.08 639.71 799.99
  Q 642.04 795.97 646.13 790.89
  Q 650.54 785.42 657.19 780.68
  Q 661.94 777.28 663.00 777.20
  Q 663.41 777.17 663.61 776.81
  Q 664.09 775.97 665.15 775.96
  Q 665.66 775.96 666.07 775.67
  Q 667.22 774.86 668.79 774.30
  Q 673.59 772.60 678.55 771.41
  Q 679.91 771.09 681.50 771.12
  Q 682.94 771.14 683.54 770.84
  C 685.09 770.07 689.48 770.48 694.87 770.46
  Q 695.27 770.46 695.59 770.64
  Q 695.73 770.71 695.96 770.86
  A 1.40 1.37 -28.9 0 0 696.68 771.06
  Q 700.73 771.07 705.77 772.35
  Q 711.81 773.88 717.51 777.01
  Q 718.10 777.33 717.93 777.99
  L 713.88 793.48
  Q 713.80 793.79 713.52 793.62
  Q 706.85 789.54 698.98 788.26
  Q 698.90 788.25 698.03 788.25
  Q 697.48 788.25 697.06 787.90
  Q 696.69 787.60 696.20 787.60
  Q 690.74 787.58 685.38 787.59
  Q 684.32 787.59 683.25 788.02
  Q 682.56 788.30 681.02 788.16
  A 1.38 1.37 28.9 0 0 680.10 788.42
  C 679.31 789.01 678.28 788.84 677.45 789.11
  Q 662.63 793.86 654.28 807.03
  Q 647.99 816.96 645.59 828.83
  Q 645.15 831.00 645.17 831.86
  Q 645.18 832.28 644.98 832.62
  L 644.70 833.10
  A 1.32 1.25 -35.8 0 0 644.54 833.94
  Q 644.76 835.41 644.04 836.98
  A 1.79 1.77 -35.2 0 0 643.88 837.88
  Q 644.09 840.50 643.75 841.90
  Q 643.29 843.81 643.31 845.70
  Q 643.34 850.15 643.32 857.74
  Q 643.31 859.45 643.76 861.73
  Q 644.06 863.24 643.86 865.93
  Q 643.82 866.45 644.12 866.88
  C 644.96 868.05 644.40 869.52 644.75 871.08
  Q 645.88 876.09 646.35 877.88
  Q 649.07 888.22 654.71 896.83
  Q 656.56 899.67 658.72 901.70
  C 660.42 903.31 662.10 905.28 664.19 906.86
  Q 672.38 913.05 682.71 914.25
  Q 683.01 914.28 683.24 914.48
  L 683.43 914.64
  Q 683.49 914.69 683.56 914.69
  C 687.86 914.65 692.76 915.06 697.12 914.29
  Q 700.90 913.61 702.03 913.42
  Q 702.43 913.35 702.71 913.06
  Z"
/>
<path fill="#1a1a1a" d="
  M 835.74 930.57
  C 834.00 931.77 832.42 930.55 830.87 931.49
  Q 830.44 931.75 829.95 931.76
  C 827.44 931.81 822.99 932.30 820.67 931.36
  Q 819.66 930.95 818.40 931.20
  Q 817.90 931.30 817.53 930.95
  C 816.84 930.30 815.99 930.69 815.21 930.50
  Q 810.76 929.38 806.76 927.02
  C 806.25 926.73 805.52 926.83 804.81 926.41
  Q 796.77 921.57 790.60 914.17
  Q 784.71 907.11 780.99 898.20
  Q 778.79 892.95 778.52 892.26
  Q 777.89 890.71 777.59 889.25
  Q 777.30 887.80 776.66 886.24
  Q 776.00 884.61 775.83 882.71
  Q 775.77 881.95 775.26 880.28
  Q 774.85 878.93 774.69 877.91
  Q 773.79 872.50 773.72 872.30
  C 773.18 870.68 773.88 868.80 773.07 867.52
  Q 772.80 867.11 772.82 866.61
  Q 772.99 863.10 772.66 861.33
  Q 772.14 858.50 772.18 856.17
  Q 772.27 851.23 772.18 846.29
  Q 772.17 845.79 772.42 845.26
  Q 772.66 844.75 772.73 844.59
  Q 772.87 844.28 772.86 843.89
  C 772.86 840.75 772.47 838.78 773.28 836.55
  Q 773.62 835.60 773.40 833.53
  Q 773.35 833.05 773.58 832.61
  Q 773.83 832.14 774.06 830.50
  Q 775.84 818.02 781.33 805.10
  Q 784.00 798.84 788.21 792.73
  Q 793.77 784.68 801.72 778.95
  Q 807.79 774.57 814.99 772.37
  Q 816.61 771.87 819.61 771.38
  Q 822.66 770.87 822.73 770.84
  C 824.76 770.04 827.76 770.48 830.75 770.47
  Q 831.32 770.47 833.19 770.92
  C 834.69 771.28 835.94 770.66 837.35 771.61
  Q 837.68 771.83 838.23 771.71
  Q 838.57 771.63 840.14 772.07
  Q 851.90 775.37 860.44 784.32
  Q 865.84 789.98 868.56 794.49
  Q 876.24 807.22 879.10 821.31
  Q 879.43 822.95 879.95 824.88
  Q 880.41 826.55 880.39 827.73
  Q 880.38 829.16 880.65 829.70
  C 881.32 831.04 880.79 832.85 881.21 834.36
  C 881.83 836.60 881.61 837.99 881.58 840.94
  A 1.40 1.39 26.9 0 0 881.87 841.82
  Q 882.18 842.23 882.18 842.50
  Q 882.21 849.39 882.17 856.57
  Q 882.17 856.91 882.02 857.14
  Q 881.95 857.24 881.81 857.42
  Q 881.60 857.66 881.60 857.98
  C 881.57 859.89 882.00 863.35 881.14 865.69
  C 880.71 866.84 881.10 868.41 880.86 869.78
  Q 880.45 872.19 879.80 875.75
  Q 876.98 891.05 870.31 903.59
  Q 867.25 909.34 860.38 917.25
  C 858.43 919.50 856.13 920.81 853.82 922.69
  Q 852.44 923.81 851.05 924.66
  Q 844.69 928.57 837.01 930.58
  Q 836.79 930.64 836.51 930.57
  Q 836.31 930.53 836.25 930.52
  Q 835.92 930.45 835.74 930.57
  Z
  M 788.70 851.00
  Q 788.70 857.39 788.68 858.16
  Q 788.65 859.57 789.18 861.77
  Q 789.54 863.27 789.27 865.40
  Q 789.21 865.89 789.44 866.33
  C 790.19 867.72 789.91 869.53 790.14 870.66
  Q 791.44 877.19 792.77 881.85
  Q 795.14 890.16 799.95 898.28
  Q 805.75 908.07 815.71 912.92
  Q 817.28 913.69 819.63 914.34
  Q 822.72 915.20 823.78 915.27
  Q 835.55 916.01 843.75 909.99
  Q 851.04 904.64 855.39 896.70
  Q 861.08 886.32 863.19 875.29
  Q 863.83 871.96 864.18 870.65
  C 864.62 869.00 864.15 867.41 864.69 866.13
  C 865.44 864.35 864.68 861.76 865.29 859.91
  C 866.10 857.45 865.68 855.32 865.68 851.23
  Q 865.68 844.84 865.70 844.07
  Q 865.73 842.66 865.20 840.46
  Q 864.84 838.96 865.11 836.83
  Q 865.17 836.34 864.94 835.90
  C 864.19 834.51 864.47 832.70 864.24 831.57
  Q 862.94 825.04 861.61 820.38
  Q 859.24 812.07 854.43 803.95
  Q 848.63 794.16 838.67 789.31
  Q 837.10 788.54 834.75 787.89
  Q 831.66 787.03 830.60 786.96
  Q 818.83 786.22 810.63 792.24
  Q 803.34 797.59 798.99 805.53
  Q 793.30 815.91 791.19 826.94
  Q 790.55 830.27 790.20 831.58
  C 789.76 833.23 790.23 834.82 789.69 836.10
  C 788.94 837.88 789.70 840.47 789.09 842.31
  C 788.28 844.78 788.70 846.91 788.70 851.00
  Z"
/>
<path fill="#1a1a1a" d="
  M 1360.74 779.19
  A 0.62 0.58 69.8 0 0 1360.60 779.52
  Q 1360.47 781.15 1360.01 782.75
  Q 1359.09 785.89 1357.26 793.69
  A 0.65 0.65 0.0 0 1 1356.26 794.08
  C 1352.74 791.67 1347.27 788.63 1343.00 788.20
  Q 1342.51 788.15 1342.18 787.86
  Q 1341.82 787.54 1341.34 787.62
  Q 1340.29 787.80 1338.45 787.26
  Q 1335.65 786.46 1330.48 787.26
  Q 1316.54 789.43 1312.68 803.14
  Q 1310.74 810.04 1312.28 817.28
  Q 1313.81 824.53 1318.86 829.94
  Q 1319.86 831.01 1321.31 831.88
  C 1322.33 832.48 1322.84 833.42 1324.18 834.26
  C 1327.91 836.60 1330.03 838.01 1333.29 839.65
  Q 1339.61 842.81 1345.58 846.72
  Q 1348.17 848.43 1351.38 851.43
  Q 1355.30 855.09 1356.51 856.62
  Q 1364.06 866.07 1365.45 878.15
  C 1365.54 878.94 1365.15 880.48 1365.90 881.28
  Q 1366.30 881.71 1366.27 882.29
  L 1365.51 896.02
  Q 1365.48 896.47 1365.21 896.84
  Q 1364.59 897.66 1364.89 899.02
  A 0.97 0.95 -30.3 0 1 1364.65 899.90
  C 1364.04 900.56 1364.24 901.36 1364.06 902.01
  Q 1362.02 909.83 1357.32 916.25
  Q 1356.60 917.24 1355.59 918.18
  C 1354.77 918.94 1354.32 920.04 1353.41 920.89
  Q 1345.36 928.44 1333.30 930.86
  Q 1331.97 931.12 1330.44 931.21
  Q 1328.41 931.32 1327.65 931.48
  Q 1323.99 932.24 1321.29 931.70
  Q 1318.48 931.12 1317.28 931.18
  Q 1315.84 931.25 1315.05 930.86
  Q 1314.83 930.76 1312.62 930.34
  Q 1302.78 928.49 1293.99 922.46
  Q 1292.90 921.72 1293.72 920.91
  Q 1294.00 920.63 1294.14 919.57
  Q 1294.51 916.60 1297.17 905.48
  Q 1297.29 904.99 1297.69 905.29
  Q 1299.97 907.01 1305.18 910.17
  C 1306.68 911.08 1308.85 911.65 1310.63 912.47
  Q 1312.19 913.19 1314.16 913.65
  Q 1316.94 914.31 1317.89 914.64
  Q 1318.37 914.81 1318.87 914.71
  Q 1320.03 914.49 1320.85 915.04
  Q 1321.29 915.34 1321.83 915.34
  L 1327.74 915.34
  Q 1328.23 915.34 1328.65 915.09
  C 1329.79 914.40 1330.87 914.87 1332.13 914.52
  Q 1337.06 913.14 1339.97 910.94
  Q 1346.87 905.71 1349.31 896.87
  Q 1349.68 895.55 1349.60 894.71
  C 1349.49 893.56 1350.21 893.05 1350.20 891.82
  Q 1350.18 887.87 1350.20 886.13
  A 20.46 7.89 60.4 0 0 1349.31 880.12
  Q 1349.04 879.12 1347.86 875.62
  C 1346.42 871.39 1342.02 866.53 1338.91 864.23
  C 1335.17 861.46 1329.76 858.18 1325.02 855.99
  Q 1319.70 853.54 1314.24 849.58
  Q 1313.37 848.96 1312.89 848.35
  C 1312.41 847.74 1311.63 847.64 1311.23 847.28
  Q 1302.48 839.33 1298.93 830.22
  Q 1295.72 821.97 1295.76 810.65
  Q 1295.77 809.06 1296.21 807.98
  C 1296.67 806.82 1296.25 805.56 1296.50 804.33
  Q 1298.40 794.88 1301.58 789.42
  Q 1309.86 775.24 1326.37 771.37
  Q 1327.27 771.16 1328.76 771.10
  Q 1329.69 771.05 1331.05 770.82
  Q 1335.92 770.00 1338.17 770.57
  Q 1339.46 770.91 1342.39 771.21
  Q 1351.87 772.21 1360.89 777.49
  A 0.83 0.83 0.0 0 1 1361.10 778.76
  L 1360.74 779.19
  Z"
/>
<path fill="#1a1a1a" d="
  M 1490.85 779.18
  A 0.62 0.58 69.8 0 0 1490.71 779.51
  Q 1490.58 781.14 1490.12 782.74
  Q 1489.20 785.88 1487.38 793.68
  A 0.65 0.65 0.0 0 1 1486.38 794.07
  C 1482.86 791.66 1477.39 788.63 1473.12 788.20
  Q 1472.63 788.15 1472.30 787.86
  Q 1471.94 787.54 1471.46 787.62
  Q 1470.41 787.80 1468.57 787.25
  Q 1465.78 786.45 1460.60 787.25
  Q 1446.67 789.43 1442.82 803.13
  Q 1440.87 810.03 1442.41 817.27
  Q 1443.95 824.52 1449.00 829.93
  Q 1450.00 831.00 1451.44 831.86
  C 1452.46 832.46 1452.97 833.40 1454.31 834.24
  C 1458.04 836.58 1460.16 837.99 1463.42 839.63
  Q 1469.74 842.79 1475.71 846.70
  Q 1478.30 848.40 1481.51 851.40
  Q 1485.43 855.07 1486.64 856.59
  Q 1494.19 866.04 1495.57 878.11
  C 1495.66 878.90 1495.27 880.44 1496.02 881.24
  Q 1496.42 881.68 1496.39 882.26
  L 1495.64 895.98
  Q 1495.61 896.43 1495.34 896.80
  Q 1494.72 897.62 1495.02 898.98
  A 0.97 0.95 -30.3 0 1 1494.78 899.86
  C 1494.17 900.52 1494.37 901.32 1494.20 901.97
  Q 1492.15 909.78 1487.46 916.20
  Q 1486.74 917.19 1485.73 918.13
  C 1484.91 918.89 1484.46 919.99 1483.55 920.84
  Q 1475.50 928.39 1463.45 930.81
  Q 1462.12 931.08 1460.59 931.17
  Q 1458.56 931.28 1457.80 931.43
  Q 1454.14 932.19 1451.44 931.65
  Q 1448.63 931.07 1447.43 931.13
  Q 1446.00 931.20 1445.21 930.81
  Q 1444.99 930.71 1442.78 930.30
  Q 1432.93 928.45 1424.14 922.42
  Q 1423.05 921.68 1423.87 920.87
  Q 1424.15 920.59 1424.30 919.53
  Q 1424.67 916.56 1427.32 905.45
  Q 1427.44 904.96 1427.84 905.26
  Q 1430.12 906.97 1435.33 910.13
  C 1436.83 911.04 1439.00 911.61 1440.78 912.44
  Q 1442.34 913.15 1444.31 913.61
  Q 1447.09 914.27 1448.04 914.60
  Q 1448.52 914.77 1449.02 914.67
  Q 1450.18 914.45 1451.00 915.00
  Q 1451.44 915.30 1451.97 915.30
  L 1457.88 915.30
  Q 1458.37 915.30 1458.79 915.05
  C 1459.94 914.36 1461.02 914.82 1462.28 914.47
  Q 1467.21 913.09 1470.11 910.89
  Q 1477.01 905.66 1479.45 896.83
  Q 1479.82 895.51 1479.74 894.67
  C 1479.63 893.52 1480.35 893.01 1480.34 891.78
  Q 1480.32 887.83 1480.34 886.09
  A 20.45 7.88 60.4 0 0 1479.44 880.08
  Q 1479.17 879.09 1477.99 875.59
  C 1476.55 871.36 1472.15 866.50 1469.04 864.20
  C 1465.30 861.43 1459.89 858.16 1455.15 855.97
  Q 1449.84 853.51 1444.38 849.56
  Q 1443.51 848.94 1443.03 848.33
  C 1442.55 847.72 1441.77 847.62 1441.37 847.26
  Q 1432.62 839.32 1429.07 830.21
  Q 1425.86 821.96 1425.90 810.65
  Q 1425.91 809.06 1426.35 807.98
  C 1426.81 806.82 1426.39 805.56 1426.64 804.33
  Q 1428.53 794.88 1431.72 789.42
  Q 1439.98 775.24 1456.49 771.38
  Q 1457.39 771.17 1458.88 771.10
  Q 1459.81 771.05 1461.17 770.82
  Q 1466.04 770.00 1468.29 770.57
  Q 1469.58 770.91 1472.50 771.21
  Q 1481.98 772.21 1491.00 777.49
  A 0.83 0.83 0.0 0 1 1491.21 778.75
  L 1490.85 779.18
  Z"
/>
<path fill="#1a1a1a" d="
  M 2003.46 779.22
  A 0.62 0.58 69.8 0 0 2003.32 779.55
  Q 2003.19 781.18 2002.72 782.78
  Q 2001.80 785.92 1999.98 793.72
  A 0.65 0.65 0.0 0 1 1998.98 794.11
  C 1995.46 791.69 1989.99 788.66 1985.72 788.23
  Q 1985.23 788.18 1984.90 787.89
  Q 1984.54 787.57 1984.06 787.65
  Q 1983.01 787.82 1981.17 787.28
  Q 1978.38 786.48 1973.21 787.28
  Q 1959.27 789.45 1955.41 803.15
  Q 1953.47 810.05 1955.00 817.29
  Q 1956.54 824.53 1961.59 829.95
  Q 1962.59 831.02 1964.03 831.88
  C 1965.05 832.48 1965.55 833.42 1966.89 834.26
  C 1970.62 836.60 1972.74 838.02 1976.00 839.65
  Q 1982.32 842.81 1988.29 846.73
  Q 1990.88 848.43 1994.09 851.43
  Q 1998.01 855.10 1999.21 856.62
  Q 2006.76 866.07 2008.14 878.15
  C 2008.23 878.94 2007.84 880.48 2008.59 881.28
  Q 2008.99 881.71 2008.96 882.29
  L 2008.20 896.01
  Q 2008.17 896.46 2007.90 896.83
  Q 2007.28 897.65 2007.58 899.01
  A 0.97 0.95 -30.3 0 1 2007.34 899.89
  C 2006.73 900.55 2006.93 901.35 2006.75 902.00
  Q 2004.71 909.81 2000.01 916.23
  Q 1999.29 917.22 1998.28 918.16
  C 1997.46 918.92 1997.01 920.01 1996.10 920.86
  Q 1988.05 928.41 1976.00 930.82
  Q 1974.67 931.09 1973.14 931.18
  Q 1971.11 931.29 1970.35 931.45
  Q 1966.69 932.21 1963.99 931.66
  Q 1961.18 931.08 1959.98 931.14
  Q 1958.55 931.21 1957.76 930.82
  Q 1957.54 930.72 1955.33 930.31
  Q 1945.49 928.45 1936.70 922.42
  Q 1935.61 921.68 1936.43 920.87
  Q 1936.71 920.59 1936.85 919.53
  Q 1937.22 916.56 1939.88 905.45
  Q 1940.00 904.96 1940.40 905.26
  Q 1942.68 906.98 1947.89 910.14
  C 1949.39 911.05 1951.56 911.62 1953.34 912.44
  Q 1954.90 913.16 1956.87 913.62
  Q 1959.65 914.28 1960.60 914.61
  Q 1961.08 914.78 1961.58 914.68
  Q 1962.74 914.46 1963.56 915.01
  Q 1964.00 915.31 1964.53 915.31
  L 1970.44 915.32
  Q 1970.93 915.32 1971.35 915.07
  C 1972.49 914.38 1973.57 914.84 1974.83 914.49
  Q 1979.76 913.11 1982.66 910.91
  Q 1989.57 905.69 1992.01 896.86
  Q 1992.38 895.54 1992.30 894.70
  C 1992.19 893.55 1992.91 893.04 1992.90 891.81
  Q 1992.88 887.86 1992.90 886.12
  A 20.45 7.88 60.4 0 0 1992.01 880.11
  Q 1991.74 879.11 1990.56 875.61
  C 1989.12 871.38 1984.73 866.53 1981.62 864.23
  C 1977.88 861.45 1972.47 858.18 1967.73 855.98
  Q 1962.42 853.53 1956.96 849.58
  Q 1956.09 848.96 1955.61 848.35
  C 1955.13 847.74 1954.35 847.63 1953.95 847.27
  Q 1945.21 839.33 1941.66 830.22
  Q 1938.45 821.97 1938.50 810.66
  Q 1938.51 809.07 1938.95 807.99
  C 1939.41 806.83 1938.99 805.57 1939.24 804.34
  Q 1941.14 794.90 1944.32 789.44
  Q 1952.59 775.26 1969.10 771.40
  Q 1970.00 771.19 1971.49 771.12
  Q 1972.42 771.07 1973.78 770.85
  Q 1978.65 770.03 1980.90 770.60
  Q 1982.19 770.94 1985.11 771.24
  Q 1994.59 772.24 2003.61 777.53
  A 0.83 0.83 0.0 0 1 2003.82 778.79
  L 2003.46 779.22
  Z"
/>
<path fill="#1a1a1a" d="
  M 2371.83 779.19
  A 0.62 0.58 69.8 0 0 2371.69 779.52
  Q 2371.56 781.15 2371.10 782.75
  Q 2370.17 785.89 2368.35 793.69
  A 0.65 0.65 0.0 0 1 2367.35 794.08
  C 2363.83 791.67 2358.36 788.64 2354.09 788.20
  Q 2353.60 788.15 2353.27 787.86
  Q 2352.91 787.54 2352.43 787.62
  Q 2351.38 787.80 2349.54 787.26
  Q 2346.75 786.46 2341.58 787.26
  Q 2327.64 789.43 2323.79 803.13
  Q 2321.84 810.03 2323.38 817.28
  Q 2324.92 824.52 2329.97 829.93
  Q 2330.97 831.00 2332.41 831.86
  C 2333.43 832.46 2333.94 833.40 2335.28 834.25
  C 2339.01 836.59 2341.12 838.00 2344.38 839.63
  Q 2350.70 842.79 2356.67 846.71
  Q 2359.26 848.41 2362.47 851.41
  Q 2366.39 855.07 2367.60 856.59
  Q 2375.15 866.05 2376.53 878.12
  C 2376.62 878.91 2376.23 880.45 2376.98 881.25
  Q 2377.38 881.68 2377.35 882.26
  L 2376.60 895.99
  Q 2376.57 896.44 2376.30 896.81
  Q 2375.68 897.63 2375.98 898.99
  A 0.97 0.95 -30.3 0 1 2375.74 899.87
  C 2375.12 900.53 2375.32 901.33 2375.15 901.98
  Q 2373.11 909.79 2368.42 916.21
  Q 2367.70 917.20 2366.68 918.14
  C 2365.86 918.90 2365.41 920.00 2364.50 920.85
  Q 2356.46 928.40 2344.40 930.81
  Q 2343.07 931.08 2341.54 931.17
  Q 2339.51 931.28 2338.75 931.44
  Q 2335.09 932.20 2332.39 931.66
  Q 2329.58 931.07 2328.38 931.13
  Q 2326.95 931.20 2326.16 930.81
  Q 2325.94 930.71 2323.73 930.30
  Q 2313.89 928.45 2305.10 922.42
  Q 2304.01 921.68 2304.83 920.87
  Q 2305.11 920.59 2305.25 919.53
  Q 2305.62 916.56 2308.28 905.45
  Q 2308.40 904.96 2308.80 905.26
  Q 2311.08 906.97 2316.29 910.13
  C 2317.79 911.04 2319.96 911.62 2321.74 912.44
  Q 2323.30 913.15 2325.27 913.61
  Q 2328.05 914.27 2329.00 914.60
  Q 2329.48 914.77 2329.98 914.67
  Q 2331.14 914.45 2331.96 915.00
  Q 2332.40 915.30 2332.93 915.30
  L 2338.84 915.30
  Q 2339.33 915.30 2339.75 915.06
  C 2340.89 914.37 2341.97 914.83 2343.23 914.48
  Q 2348.16 913.10 2351.06 910.90
  Q 2357.97 905.67 2360.40 896.84
  Q 2360.77 895.52 2360.69 894.68
  C 2360.58 893.53 2361.30 893.02 2361.30 891.79
  Q 2361.28 887.84 2361.30 886.10
  A 20.45 7.88 60.4 0 0 2360.40 880.09
  Q 2360.13 879.10 2358.95 875.59
  C 2357.51 871.36 2353.11 866.51 2350.01 864.21
  C 2346.27 861.44 2340.86 858.16 2336.12 855.97
  Q 2330.81 853.52 2325.35 849.56
  Q 2324.48 848.94 2324.00 848.33
  C 2323.52 847.72 2322.74 847.62 2322.34 847.26
  Q 2313.59 839.32 2310.04 830.21
  Q 2306.82 821.96 2306.87 810.65
  Q 2306.88 809.06 2307.32 807.98
  C 2307.78 806.82 2307.36 805.56 2307.61 804.33
  Q 2309.51 794.88 2312.69 789.42
  Q 2320.96 775.25 2337.46 771.38
  Q 2338.36 771.17 2339.85 771.10
  Q 2340.78 771.05 2342.15 770.82
  Q 2347.02 770.01 2349.27 770.58
  Q 2350.56 770.92 2353.48 771.22
  Q 2362.96 772.21 2371.98 777.50
  A 0.83 0.83 0.0 0 1 2372.19 778.76
  L 2371.83 779.19
  Z"
/>
<path fill="#1a1a1a" d="
  M 2569.63 793.97
  L 2569.71 794.45
  Q 2569.81 795.02 2569.30 794.68
  Q 2565.39 792.11 2560.49 790.71
  Q 2559.51 790.43 2555.29 789.17
  Q 2553.79 788.72 2552.66 788.82
  C 2551.29 788.93 2550.43 788.23 2549.06 788.21
  Q 2546.74 788.18 2538.74 788.19
  C 2536.96 788.19 2535.66 789.05 2533.88 788.80
  Q 2533.38 788.73 2533.01 789.07
  Q 2532.62 789.43 2532.05 789.48
  Q 2528.61 789.80 2526.71 791.11
  Q 2526.57 791.20 2526.34 791.19
  Q 2526.19 791.18 2526.15 791.18
  Q 2525.96 791.14 2525.80 791.21
  Q 2520.87 793.40 2516.59 796.45
  Q 2516.33 796.63 2515.22 797.78
  C 2514.54 798.48 2513.69 798.65 2513.02 799.25
  Q 2511.08 800.99 2509.71 803.20
  C 2509.24 803.96 2508.30 804.45 2507.75 805.24
  Q 2498.16 818.86 2496.28 835.04
  Q 2496.28 835.06 2495.76 837.61
  Q 2495.57 838.54 2495.73 840.27
  Q 2495.83 841.27 2495.32 842.04
  A 1.40 1.36 61.9 0 0 2495.09 842.84
  Q 2495.10 847.18 2495.07 856.91
  C 2495.06 859.68 2495.97 862.21 2495.66 865.11
  Q 2495.61 865.61 2495.82 866.06
  Q 2496.33 867.17 2496.40 868.79
  Q 2496.57 872.27 2499.88 882.54
  Q 2504.03 895.40 2513.57 904.18
  Q 2518.09 908.33 2523.13 910.68
  Q 2528.35 913.10 2534.26 914.02
  Q 2542.72 915.35 2546.01 914.66
  Q 2550.02 913.83 2550.86 914.08
  Q 2551.37 914.24 2551.78 913.88
  Q 2552.55 913.22 2553.41 913.44
  Q 2553.95 913.58 2554.48 913.38
  L 2560.72 911.02
  A 1.48 1.47 79.7 0 0 2561.67 909.64
  L 2561.67 863.76
  A 0.41 0.41 0.0 0 0 2561.26 863.35
  L 2537.79 863.35
  Q 2537.22 863.35 2537.22 862.79
  L 2537.22 847.44
  Q 2537.22 846.86 2537.80 846.86
  L 2576.37 846.86
  Q 2576.93 846.86 2576.93 847.42
  L 2576.93 921.75
  A 1.26 1.26 0.0 0 1 2576.18 922.90
  Q 2567.55 926.67 2561.91 927.98
  Q 2561.89 927.98 2558.71 928.96
  Q 2558.06 929.16 2555.36 929.50
  Q 2552.65 929.84 2551.05 930.21
  C 2548.66 930.75 2546.94 930.25 2544.97 930.80
  Q 2543.66 931.16 2542.51 931.16
  Q 2537.94 931.20 2536.91 931.19
  A 1.42 1.38 63.0 0 1 2536.06 930.90
  Q 2535.43 930.43 2534.77 930.49
  Q 2532.35 930.75 2530.84 930.45
  Q 2529.20 930.13 2529.08 930.11
  Q 2515.76 928.18 2505.15 920.31
  Q 2502.99 918.70 2501.91 917.57
  C 2499.85 915.40 2497.05 912.95 2495.38 910.69
  Q 2491.85 905.89 2488.35 899.38
  Q 2487.86 898.48 2487.68 897.54
  C 2487.53 896.79 2486.88 896.06 2486.51 895.14
  Q 2485.17 891.82 2482.94 884.39
  Q 2482.81 883.96 2481.24 877.90
  Q 2480.96 876.78 2481.05 876.06
  Q 2481.14 875.30 2480.60 874.74
  A 1.01 1.01 0.0 0 1 2480.34 873.87
  Q 2480.64 872.22 2480.10 871.30
  Q 2479.87 870.91 2479.83 870.35
  L 2479.06 859.86
  A 0.85 0.06 86.1 0 0 2478.96 859.13
  Q 2478.68 858.73 2478.67 858.71
  Q 2478.58 858.52 2478.58 858.28
  Q 2478.59 853.98 2478.60 846.47
  C 2478.60 846.10 2478.69 845.84 2478.92 845.58
  Q 2479.14 845.31 2479.14 844.97
  C 2479.21 841.93 2478.90 840.05 2479.67 837.65
  C 2480.13 836.21 2479.36 834.54 2480.21 833.23
  Q 2480.41 832.93 2480.86 829.74
  Q 2481.22 827.18 2481.44 826.30
  Q 2484.75 812.92 2489.90 803.39
  Q 2491.24 800.93 2494.78 795.82
  Q 2496.93 792.72 2499.89 789.78
  Q 2503.95 785.76 2505.53 784.22
  C 2506.64 783.14 2508.10 782.57 2509.26 781.55
  Q 2510.15 780.77 2510.70 780.42
  Q 2520.72 774.13 2532.68 771.90
  Q 2534.42 771.58 2535.34 771.71
  C 2536.65 771.91 2537.42 771.11 2538.87 771.10
  C 2544.12 771.09 2546.82 770.60 2550.04 771.54
  Q 2551.23 771.88 2553.85 771.63
  Q 2554.38 771.58 2554.79 771.91
  Q 2555.71 772.64 2557.06 772.21
  A 0.84 0.42 46.3 0 1 2557.70 772.44
  Q 2557.79 772.51 2557.90 772.61
  Q 2558.04 772.74 2558.23 772.78
  Q 2565.98 774.16 2572.68 778.11
  A 0.90 0.89 20.6 0 1 2573.11 779.04
  Q 2572.00 784.90 2570.23 791.89
  Q 2570.19 792.06 2570.17 792.58
  Q 2570.16 792.89 2569.99 793.13
  Q 2569.58 793.69 2569.63 793.97
  Z"
/>
<path fill="#1a1a1a" d="
  M 1081.24 772.31
  Q 1081.65 772.30 1081.95 772.02
  Q 1082.05 771.93 1082.16 771.85
  Q 1082.39 771.69 1082.66 771.69
  Q 1088.25 771.69 1093.84 771.69
  Q 1094.38 771.69 1094.58 771.85
  Q 1094.70 771.93 1094.92 772.10
  A 1.17 1.16 -26.0 0 0 1095.57 772.32
  Q 1096.23 772.33 1099.38 772.33
  Q 1100.20 772.33 1102.00 772.77
  C 1103.25 773.08 1104.53 772.67 1105.60 773.14
  Q 1106.36 773.48 1109.27 774.07
  Q 1111.60 774.55 1112.92 774.97
  Q 1120.66 777.45 1127.09 781.59
  C 1128.73 782.65 1129.60 783.86 1131.15 784.73
  Q 1131.45 784.90 1132.72 786.07
  Q 1139.07 791.95 1143.21 799.12
  Q 1147.57 806.65 1150.25 814.81
  C 1150.42 815.31 1150.32 815.87 1150.51 816.42
  Q 1152.40 821.60 1152.90 827.11
  Q 1152.95 827.67 1153.14 827.97
  L 1153.37 828.32
  Q 1153.52 828.54 1153.50 828.80
  Q 1153.29 831.25 1153.64 832.38
  Q 1154.26 834.35 1154.07 835.80
  Q 1153.84 837.53 1154.28 839.61
  Q 1154.68 841.45 1154.67 843.42
  C 1154.65 848.87 1155.12 851.88 1154.27 855.39
  Q 1153.91 856.87 1154.09 859.25
  Q 1154.21 860.83 1153.63 862.70
  Q 1153.26 863.91 1153.49 866.21
  A 1.83 1.77 55.9 0 1 1153.33 867.12
  Q 1152.92 867.96 1152.86 869.77
  Q 1152.80 871.47 1151.39 876.64
  Q 1149.74 882.72 1149.55 883.39
  Q 1146.61 893.57 1140.98 902.54
  Q 1135.27 911.65 1127.81 917.42
  Q 1117.81 925.14 1105.08 928.18
  Q 1096.75 930.16 1093.04 930.07
  Q 1092.75 930.06 1092.28 930.32
  A 2.09 1.97 -57.9 0 1 1091.31 930.57
  Q 1082.34 930.56 1073.38 930.57
  C 1072.37 930.57 1072.08 929.93 1071.14 929.93
  Q 1069.05 929.94 1067.01 929.98
  Q 1065.80 930.00 1063.51 929.50
  Q 1062.07 929.18 1059.86 929.40
  Q 1059.38 929.45 1058.99 929.18
  Q 1058.14 928.59 1056.91 928.72
  Q 1056.32 928.79 1056.32 928.20
  L 1056.32 775.33
  A 0.59 0.58 -3.3 0 1 1056.84 774.75
  L 1067.33 773.50
  A 1.12 1.01 19.7 0 0 1067.84 773.29
  Q 1068.47 772.81 1069.48 772.90
  Q 1071.35 773.06 1072.87 772.73
  C 1075.81 772.09 1078.12 772.35 1081.24 772.31
  Z
  M 1074.76 789.15
  C 1073.78 789.44 1073.59 789.48 1072.79 789.44
  Q 1072.19 789.42 1072.19 790.01
  L 1072.20 913.01
  A 0.50 0.50 0.0 0 0 1072.79 913.50
  C 1074.89 913.11 1076.05 914.11 1077.96 914.10
  Q 1085.24 914.04 1093.45 914.09
  C 1095.22 914.10 1096.13 913.18 1098.01 913.48
  A 1.43 0.74 -43.4 0 0 1098.91 913.22
  Q 1099.20 913.03 1100.41 912.78
  Q 1115.15 909.68 1124.57 897.69
  Q 1131.41 888.98 1134.62 877.08
  Q 1135.78 872.83 1136.74 868.11
  C 1137.07 866.53 1136.60 864.87 1137.35 863.78
  Q 1137.64 863.36 1137.62 862.85
  Q 1137.45 859.50 1137.68 858.70
  C 1138.73 854.99 1138.18 849.86 1138.18 840.84
  Q 1138.18 839.90 1137.74 837.74
  C 1137.45 836.27 1137.95 833.96 1137.23 832.79
  Q 1136.96 832.36 1136.98 831.85
  Q 1137.06 828.75 1135.88 825.75
  Q 1135.72 825.35 1135.76 824.93
  Q 1135.80 824.53 1135.76 824.39
  Q 1132.12 810.75 1125.52 802.88
  Q 1114.38 789.58 1096.15 788.03
  Q 1096.13 788.03 1096.11 788.02
  L 1095.85 787.79
  Q 1095.63 787.61 1095.35 787.61
  L 1084.14 787.61
  Q 1083.63 787.61 1083.24 787.94
  Q 1082.89 788.25 1082.63 788.22
  Q 1078.80 787.93 1074.76 789.15
  Z"
/>
<path fill="#1a1a1a" d="
  M 2092.35 772.31
  Q 2092.76 772.30 2093.06 772.02
  Q 2093.16 771.93 2093.27 771.85
  Q 2093.50 771.69 2093.77 771.69
  Q 2099.36 771.69 2104.95 771.69
  Q 2105.49 771.69 2105.69 771.85
  Q 2105.81 771.93 2106.03 772.10
  A 1.17 1.16 -26.0 0 0 2106.68 772.32
  Q 2107.34 772.33 2110.49 772.33
  Q 2111.31 772.33 2113.11 772.77
  C 2114.36 773.08 2115.64 772.68 2116.71 773.15
  Q 2117.47 773.49 2120.38 774.08
  Q 2122.72 774.56 2124.04 774.98
  Q 2131.78 777.46 2138.20 781.60
  C 2139.84 782.66 2140.71 783.87 2142.26 784.74
  Q 2142.56 784.91 2143.83 786.08
  Q 2150.18 791.96 2154.32 799.12
  Q 2158.68 806.65 2161.36 814.81
  C 2161.53 815.31 2161.43 815.87 2161.62 816.42
  Q 2163.51 821.60 2164.01 827.11
  Q 2164.06 827.67 2164.25 827.97
  L 2164.48 828.32
  Q 2164.63 828.54 2164.61 828.80
  Q 2164.40 831.25 2164.75 832.38
  Q 2165.37 834.35 2165.18 835.80
  Q 2164.95 837.53 2165.39 839.62
  Q 2165.79 841.46 2165.78 843.43
  C 2165.76 848.88 2166.23 851.89 2165.38 855.40
  Q 2165.02 856.88 2165.19 859.26
  Q 2165.31 860.84 2164.73 862.71
  Q 2164.36 863.92 2164.59 866.22
  A 1.83 1.77 55.9 0 1 2164.43 867.13
  Q 2164.02 867.97 2163.96 869.78
  Q 2163.90 871.48 2162.49 876.64
  Q 2160.84 882.72 2160.65 883.39
  Q 2157.71 893.57 2152.08 902.54
  Q 2146.36 911.65 2138.90 917.42
  Q 2128.90 925.14 2116.18 928.17
  Q 2107.85 930.15 2104.14 930.06
  Q 2103.85 930.05 2103.38 930.31
  A 2.09 1.97 -57.9 0 1 2102.41 930.56
  Q 2093.44 930.55 2084.48 930.56
  C 2083.47 930.56 2083.18 929.92 2082.24 929.92
  Q 2080.15 929.93 2078.11 929.97
  Q 2076.90 929.99 2074.61 929.49
  Q 2073.17 929.17 2070.96 929.39
  Q 2070.48 929.44 2070.09 929.17
  Q 2069.24 928.58 2068.01 928.71
  Q 2067.42 928.78 2067.42 928.19
  L 2067.43 775.33
  A 0.59 0.58 -3.3 0 1 2067.95 774.75
  L 2078.44 773.50
  A 1.12 1.01 19.7 0 0 2078.95 773.29
  Q 2079.58 772.81 2080.59 772.90
  Q 2082.46 773.06 2083.98 772.73
  C 2086.92 772.09 2089.23 772.35 2092.35 772.31
  Z
  M 2085.88 789.15
  C 2084.90 789.44 2084.71 789.48 2083.91 789.44
  Q 2083.31 789.42 2083.31 790.01
  L 2083.31 913.01
  A 0.50 0.50 0.0 0 0 2083.90 913.50
  C 2086.00 913.11 2087.16 914.11 2089.07 914.10
  Q 2096.35 914.04 2104.56 914.09
  C 2106.33 914.10 2107.24 913.18 2109.12 913.48
  A 1.43 0.74 -43.4 0 0 2110.02 913.22
  Q 2110.31 913.03 2111.52 912.78
  Q 2126.26 909.68 2135.68 897.69
  Q 2142.52 888.98 2145.73 877.08
  Q 2146.89 872.83 2147.85 868.11
  C 2148.18 866.53 2147.71 864.87 2148.46 863.78
  Q 2148.75 863.36 2148.73 862.85
  Q 2148.56 859.50 2148.79 858.70
  C 2149.84 854.99 2149.29 849.86 2149.29 840.84
  Q 2149.29 839.90 2148.85 837.74
  C 2148.56 836.27 2149.06 833.96 2148.34 832.79
  Q 2148.07 832.36 2148.09 831.85
  Q 2148.17 828.75 2146.99 825.75
  Q 2146.83 825.35 2146.87 824.93
  Q 2146.91 824.53 2146.87 824.39
  Q 2143.23 810.75 2136.63 802.88
  Q 2125.49 789.58 2107.26 788.03
  Q 2107.24 788.03 2107.22 788.02
  L 2106.96 787.79
  Q 2106.74 787.61 2106.46 787.61
  L 2095.26 787.61
  Q 2094.75 787.61 2094.36 787.94
  Q 2094.01 788.25 2093.75 788.22
  Q 2089.92 787.93 2085.88 789.15
  Z"
/>
<path fill="#1a1a1a" d="
  M 2731.52 862.07
  L 2731.52 928.79
  A 0.56 0.56 0.0 0 1 2730.96 929.35
  L 2716.24 929.35
  Q 2715.63 929.35 2715.63 928.74
  L 2715.63 775.46
  Q 2715.63 774.99 2716.09 774.89
  Q 2718.36 774.36 2722.43 773.73
  Q 2722.47 773.73 2725.57 773.17
  Q 2727.77 772.77 2730.00 772.95
  Q 2730.49 772.99 2731.00 772.59
  A 1.40 1.39 -63.1 0 1 2731.88 772.30
  Q 2734.27 772.32 2740.00 772.32
  Q 2740.27 772.32 2740.66 772.02
  Q 2741.04 771.72 2741.53 771.71
  Q 2743.47 771.68 2748.85 771.68
  Q 2749.28 771.68 2749.61 771.89
  Q 2749.74 771.97 2749.97 772.14
  Q 2750.30 772.38 2750.70 772.35
  Q 2755.67 772.00 2760.38 773.48
  A 1.66 1.45 48.8 0 0 2760.98 773.56
  Q 2761.67 773.52 2762.69 773.82
  Q 2782.45 779.67 2787.53 799.49
  Q 2787.79 800.50 2788.22 801.32
  Q 2788.45 801.77 2788.36 802.27
  Q 2788.16 803.39 2788.75 804.29
  A 1.46 1.44 -59.5 0 1 2788.99 805.24
  Q 2788.79 807.12 2789.12 808.49
  Q 2789.59 810.50 2789.58 811.59
  Q 2789.54 814.80 2789.57 818.00
  Q 2789.58 818.25 2789.34 818.64
  Q 2789.08 819.07 2789.05 819.56
  Q 2788.30 831.85 2781.36 842.06
  C 2779.76 844.42 2777.79 846.12 2775.44 848.48
  C 2772.90 851.02 2770.77 851.99 2767.21 853.76
  Q 2766.72 854.00 2767.02 854.46
  Q 2768.05 855.98 2769.74 856.46
  A 2.17 2.10 -14.9 0 1 2770.60 856.94
  Q 2775.90 861.85 2777.89 866.08
  Q 2781.76 874.26 2782.21 876.48
  Q 2782.98 880.24 2783.85 883.11
  C 2784.20 884.25 2783.78 885.27 2784.53 886.35
  Q 2784.82 886.75 2784.72 887.24
  C 2784.43 888.77 2785.09 889.71 2785.26 890.73
  Q 2788.44 909.36 2791.87 923.56
  C 2792.31 925.36 2793.11 927.03 2793.51 928.81
  Q 2793.63 929.36 2793.07 929.36
  L 2777.81 929.36
  Q 2777.27 929.36 2777.14 928.83
  L 2774.35 918.18
  Q 2774.22 917.68 2774.32 917.18
  Q 2774.47 916.38 2773.85 915.74
  A 0.94 0.93 31.0 0 1 2773.62 914.83
  Q 2773.91 913.79 2773.31 912.80
  A 1.56 1.56 0.0 0 1 2773.09 911.87
  Q 2773.19 910.30 2772.64 909.61
  Q 2772.32 909.20 2772.41 908.69
  Q 2772.62 907.53 2772.14 906.78
  Q 2771.84 906.32 2771.84 905.77
  L 2771.84 903.91
  A 1.38 1.36 27.4 0 0 2771.58 903.11
  Q 2770.97 902.24 2771.26 901.16
  Q 2771.40 900.65 2771.07 900.24
  C 2770.25 899.23 2770.74 898.34 2770.53 897.32
  Q 2769.75 893.56 2769.23 889.78
  Q 2769.22 889.77 2769.22 889.76
  L 2768.95 889.47
  Q 2768.89 889.41 2768.88 889.32
  Q 2767.82 880.50 2764.05 872.73
  Q 2761.31 867.10 2755.92 863.96
  Q 2754.60 863.18 2750.71 862.20
  Q 2747.76 861.45 2745.29 861.49
  Q 2737.70 861.61 2732.09 861.51
  Q 2731.52 861.50 2731.52 862.07
  Z
  M 2734.73 788.22
  Q 2733.44 788.02 2731.92 788.86
  Q 2731.52 789.07 2731.52 789.52
  L 2731.52 846.01
  A 0.23 0.23 0.0 0 0 2731.75 846.24
  L 2750.72 846.24
  Q 2751.19 846.24 2751.58 845.99
  C 2752.47 845.43 2753.56 845.70 2754.54 845.42
  Q 2759.99 843.85 2763.14 841.16
  Q 2764.37 840.11 2764.86 839.96
  Q 2765.36 839.81 2765.51 839.31
  C 2765.99 837.76 2767.85 836.80 2768.78 835.22
  Q 2772.04 829.63 2773.22 823.48
  C 2773.92 819.86 2773.72 814.21 2773.67 811.48
  C 2773.65 810.37 2772.91 809.71 2773.05 808.64
  Q 2773.19 807.60 2772.74 806.47
  C 2772.00 804.61 2771.33 801.42 2770.08 799.35
  Q 2767.15 794.47 2762.45 791.27
  C 2759.96 789.57 2756.11 788.68 2753.75 787.73
  Q 2753.28 787.54 2752.78 787.58
  Q 2750.95 787.73 2750.48 787.53
  Q 2749.06 786.92 2747.92 786.94
  C 2744.57 786.99 2742.56 786.61 2740.16 787.42
  Q 2738.85 787.86 2736.76 787.56
  Q 2736.28 787.49 2735.63 787.99
  Q 2735.23 788.30 2734.73 788.22
  Z"
/>
<path fill="#1a1a1a" d="
  M 2878.72 772.02
  Q 2878.82 771.93 2878.93 771.85
  Q 2879.16 771.69 2879.43 771.69
  Q 2885.02 771.69 2890.61 771.69
  Q 2891.15 771.69 2891.35 771.85
  Q 2891.47 771.93 2891.69 772.10
  A 1.17 1.16 -26.0 0 0 2892.34 772.32
  Q 2893.00 772.33 2896.15 772.33
  Q 2896.97 772.33 2898.77 772.77
  C 2900.02 773.08 2901.30 772.67 2902.37 773.14
  Q 2903.13 773.48 2906.04 774.07
  Q 2908.38 774.55 2909.70 774.97
  Q 2917.44 777.45 2923.87 781.59
  C 2925.51 782.65 2926.38 783.86 2927.93 784.73
  Q 2928.23 784.90 2929.50 786.07
  Q 2935.85 791.95 2939.99 799.12
  Q 2944.35 806.65 2947.03 814.81
  C 2947.20 815.31 2947.10 815.87 2947.29 816.42
  Q 2949.18 821.60 2949.68 827.11
  Q 2949.73 827.67 2949.92 827.97
  L 2950.15 828.32
  Q 2950.30 828.54 2950.28 828.80
  Q 2950.07 831.25 2950.42 832.38
  Q 2951.04 834.35 2950.85 835.80
  Q 2950.62 837.53 2951.06 839.62
  Q 2951.46 841.46 2951.45 843.43
  C 2951.43 848.88 2951.90 851.89 2951.05 855.40
  Q 2950.69 856.88 2950.87 859.26
  Q 2950.99 860.84 2950.41 862.71
  Q 2950.04 863.92 2950.27 866.22
  A 1.83 1.77 55.9 0 1 2950.11 867.13
  Q 2949.70 867.97 2949.64 869.78
  Q 2949.58 871.48 2948.17 876.65
  Q 2946.52 882.73 2946.33 883.40
  Q 2943.39 893.58 2937.76 902.55
  Q 2932.04 911.66 2924.58 917.43
  Q 2914.58 925.15 2901.85 928.19
  Q 2893.52 930.17 2889.81 930.08
  Q 2889.52 930.07 2889.05 930.33
  A 2.09 1.97 -57.9 0 1 2888.08 930.58
  Q 2879.11 930.57 2870.15 930.58
  C 2869.14 930.58 2868.85 929.94 2867.91 929.94
  Q 2865.82 929.95 2863.78 929.99
  Q 2862.57 930.01 2860.28 929.51
  Q 2858.84 929.19 2856.63 929.41
  Q 2856.15 929.46 2855.76 929.19
  Q 2854.91 928.60 2853.68 928.73
  Q 2853.09 928.80 2853.09 928.21
  L 2853.09 775.33
  A 0.59 0.58 -3.3 0 1 2853.61 774.75
  L 2864.10 773.50
  A 1.12 1.01 19.7 0 0 2864.61 773.29
  Q 2865.24 772.81 2866.25 772.90
  Q 2868.12 773.06 2869.64 772.73
  C 2872.58 772.09 2874.89 772.35 2878.01 772.31
  Q 2878.42 772.30 2878.72 772.02
  Z
  M 2871.52 789.13
  C 2870.54 789.42 2870.35 789.46 2869.55 789.42
  Q 2868.95 789.40 2868.95 789.99
  L 2868.98 913.01
  A 0.50 0.50 0.0 0 0 2869.57 913.50
  C 2871.67 913.11 2872.83 914.11 2874.74 914.10
  Q 2882.02 914.04 2890.23 914.09
  C 2892.00 914.10 2892.91 913.18 2894.79 913.48
  A 1.43 0.74 -43.4 0 0 2895.69 913.22
  Q 2895.98 913.03 2897.19 912.78
  Q 2911.94 909.67 2921.36 897.68
  Q 2928.19 888.96 2931.40 877.06
  Q 2932.56 872.81 2933.52 868.09
  C 2933.85 866.51 2933.38 864.85 2934.13 863.76
  Q 2934.42 863.34 2934.40 862.83
  Q 2934.23 859.48 2934.46 858.68
  C 2935.51 854.97 2934.96 849.84 2934.95 840.81
  Q 2934.95 839.87 2934.51 837.71
  C 2934.22 836.24 2934.72 833.93 2934.00 832.76
  Q 2933.73 832.33 2933.75 831.82
  Q 2933.83 828.72 2932.65 825.72
  Q 2932.49 825.32 2932.53 824.90
  Q 2932.57 824.50 2932.53 824.36
  Q 2928.89 810.72 2922.28 802.85
  Q 2911.14 789.55 2892.90 788.00
  Q 2892.88 788.00 2892.86 787.99
  L 2892.60 787.76
  Q 2892.38 787.58 2892.10 787.58
  L 2880.90 787.59
  Q 2880.39 787.59 2880.00 787.92
  Q 2879.65 788.23 2879.39 788.20
  Q 2875.56 787.91 2871.52 789.13
  Z"
/>
<path fill="#1a1a1a" d="
  M 3102.83 772.30
  Q 3103.24 772.29 3103.54 772.01
  Q 3103.64 771.92 3103.75 771.84
  Q 3103.98 771.68 3104.25 771.68
  Q 3109.84 771.68 3115.43 771.68
  Q 3115.97 771.68 3116.17 771.84
  Q 3116.29 771.92 3116.51 772.09
  A 1.17 1.16 -26.0 0 0 3117.16 772.31
  Q 3117.82 772.32 3120.97 772.32
  Q 3121.79 772.32 3123.59 772.76
  C 3124.84 773.07 3126.12 772.66 3127.19 773.13
  Q 3127.95 773.47 3130.87 774.06
  Q 3133.21 774.54 3134.53 774.96
  Q 3142.27 777.44 3148.70 781.58
  C 3150.34 782.64 3151.21 783.85 3152.76 784.72
  Q 3153.06 784.89 3154.33 786.06
  Q 3160.68 791.94 3164.82 799.11
  Q 3169.18 806.65 3171.86 814.81
  C 3172.03 815.31 3171.93 815.87 3172.12 816.42
  Q 3174.01 821.60 3174.51 827.11
  Q 3174.56 827.67 3174.75 827.97
  L 3174.98 828.32
  Q 3175.13 828.54 3175.11 828.80
  Q 3174.90 831.25 3175.25 832.38
  Q 3175.87 834.35 3175.68 835.80
  Q 3175.45 837.53 3175.89 839.62
  Q 3176.29 841.46 3176.28 843.43
  C 3176.26 848.88 3176.73 851.89 3175.88 855.40
  Q 3175.52 856.89 3175.70 859.27
  Q 3175.82 860.85 3175.24 862.72
  Q 3174.87 863.93 3175.10 866.23
  A 1.83 1.77 55.9 0 1 3174.94 867.14
  Q 3174.53 867.98 3174.47 869.79
  Q 3174.41 871.49 3173.00 876.66
  Q 3171.35 882.74 3171.16 883.41
  Q 3168.22 893.59 3162.59 902.56
  Q 3156.87 911.68 3149.41 917.45
  Q 3139.41 925.17 3126.67 928.21
  Q 3118.34 930.19 3114.63 930.10
  Q 3114.34 930.09 3113.87 930.35
  A 2.09 1.97 -57.9 0 1 3112.90 930.60
  Q 3103.93 930.59 3094.97 930.60
  C 3093.96 930.60 3093.67 929.96 3092.73 929.96
  Q 3090.64 929.97 3088.60 930.01
  Q 3087.39 930.03 3085.09 929.53
  Q 3083.65 929.21 3081.44 929.43
  Q 3080.96 929.48 3080.57 929.21
  Q 3079.72 928.62 3078.49 928.75
  Q 3077.90 928.82 3077.90 928.23
  L 3077.90 775.32
  A 0.59 0.58 -3.3 0 1 3078.42 774.74
  L 3088.92 773.49
  A 1.12 1.01 19.7 0 0 3089.43 773.28
  Q 3090.06 772.80 3091.07 772.89
  Q 3092.94 773.05 3094.46 772.72
  C 3097.40 772.08 3099.71 772.34 3102.83 772.30
  Z
  M 3096.36 789.12
  C 3095.38 789.41 3095.19 789.45 3094.39 789.41
  Q 3093.79 789.39 3093.79 789.98
  L 3093.81 913.02
  A 0.50 0.50 0.0 0 0 3094.40 913.51
  C 3096.50 913.12 3097.66 914.12 3099.57 914.11
  Q 3106.85 914.05 3115.07 914.10
  C 3116.84 914.11 3117.75 913.19 3119.63 913.48
  A 1.43 0.74 -43.4 0 0 3120.53 913.22
  Q 3120.82 913.03 3122.03 912.78
  Q 3136.77 909.68 3146.19 897.69
  Q 3153.03 888.97 3156.24 877.07
  Q 3157.40 872.82 3158.36 868.10
  C 3158.69 866.52 3158.22 864.86 3158.97 863.77
  Q 3159.26 863.35 3159.24 862.84
  Q 3159.07 859.48 3159.30 858.68
  C 3160.35 854.97 3159.80 849.84 3159.80 840.82
  Q 3159.80 839.88 3159.36 837.72
  C 3159.07 836.25 3159.57 833.94 3158.85 832.77
  Q 3158.58 832.34 3158.60 831.83
  Q 3158.68 828.73 3157.50 825.72
  Q 3157.34 825.32 3157.38 824.90
  Q 3157.42 824.50 3157.38 824.36
  Q 3153.73 810.72 3147.13 802.85
  Q 3135.99 789.55 3117.75 788.00
  Q 3117.73 788.00 3117.71 787.99
  L 3117.45 787.76
  Q 3117.23 787.58 3116.95 787.58
  L 3105.75 787.58
  Q 3105.24 787.58 3104.85 787.91
  Q 3104.50 788.22 3104.24 788.19
  Q 3100.41 787.90 3096.36 789.12
  Z"
/>
<rect fill="#1a1a1a" x="13.41" y="772.92" width="15.92" height="156.42" rx="0.40"/>
<path fill="#1a1a1a" d="
  M 133.17 902.56
  Q 133.32 899.78 133.06 898.49
  Q 132.58 896.12 132.58 894.47
  C 132.58 890.66 132.89 887.93 132.11 886.30
  Q 131.97 886.00 131.97 885.71
  Q 131.95 876.83 131.97 869.10
  C 131.97 867.93 131.35 867.44 131.35 866.41
  Q 131.34 796.76 131.35 773.53
  Q 131.35 772.91 131.97 772.91
  L 145.71 772.91
  A 0.31 0.31 0.0 0 1 146.02 773.22
  L 146.02 928.96
  Q 146.02 929.34 145.64 929.34
  L 130.88 929.34
  Q 130.36 929.34 130.13 928.87
  Q 128.99 926.56 119.65 906.70
  Q 117.18 901.43 113.31 893.33
  Q 110.41 887.23 107.33 881.16
  C 105.58 877.69 103.68 873.18 101.61 869.28
  Q 100.89 867.92 97.59 860.68
  C 95.84 856.84 94.02 853.59 92.05 849.27
  Q 89.15 842.94 85.42 834.88
  Q 77.29 817.33 70.67 799.34
  Q 69.64 796.56 69.64 799.52
  L 69.64 806.72
  A 1.68 1.59 31.1 0 0 69.87 807.55
  Q 70.27 808.21 70.27 808.50
  Q 70.27 818.99 70.27 829.47
  Q 70.27 829.92 70.62 830.45
  Q 70.87 830.83 70.87 831.28
  L 70.87 928.75
  A 0.59 0.59 0.0 0 1 70.28 929.34
  L 56.77 929.34
  Q 56.20 929.34 56.20 928.77
  L 56.20 773.47
  Q 56.20 772.91 56.76 772.91
  L 72.56 772.91
  Q 73.07 772.91 73.29 773.37
  L 97.70 823.74
  Q 97.79 823.94 97.84 824.16
  Q 97.88 824.31 97.95 824.45
  Q 112.73 854.92 113.55 856.63
  Q 113.75 857.03 113.69 857.25
  Q 118.69 867.45 123.10 877.93
  Q 127.92 889.39 130.65 897.07
  Q 132.36 901.89 132.82 902.65
  Q 133.13 903.15 133.17 902.56
  Z"
/>
<path fill="#1a1a1a" d="
  M 298.38 929.36
  L 283.24 929.36
  A 0.37 0.37 0.0 0 1 282.87 928.99
  L 282.87 790.42
  A 0.37 0.37 0.0 0 0 282.50 790.05
  L 247.20 790.05
  A 0.37 0.37 0.0 0 1 246.83 789.68
  L 246.83 773.29
  A 0.37 0.37 0.0 0 1 247.20 772.92
  L 335.04 772.92
  A 0.37 0.37 0.0 0 1 335.41 773.29
  L 335.41 789.68
  A 0.37 0.37 0.0 0 1 335.04 790.05
  L 299.12 790.05
  A 0.37 0.37 0.0 0 0 298.75 790.42
  L 298.75 928.99
  A 0.37 0.37 0.0 0 1 298.38 929.36
  Z"
/>
<path fill="#1a1a1a" d="
  M 355.05 879.85
  Q 354.65 879.85 354.55 880.25
  L 342.40 928.87
  A 0.63 0.60 6.3 0 1 341.79 929.33
  L 326.78 929.35
  Q 326.26 929.35 326.39 928.87
  L 366.79 773.47
  Q 366.93 772.91 367.26 772.91
  L 384.45 772.92
  Q 385.54 772.92 385.82 773.98
  L 426.30 928.82
  A 0.41 0.31 80.9 0 1 426.03 929.33
  L 410.58 929.34
  Q 409.91 929.35 409.79 928.88
  L 397.29 880.63
  A 1.08 1.05 -6.9 0 0 396.25 879.84
  L 355.05 879.85
  Z
  M 383.86 824.93
  Q 383.81 824.66 382.06 818.45
  Q 380.46 812.73 379.90 809.39
  Q 379.85 809.10 379.76 808.97
  L 379.48 808.62
  Q 379.24 808.30 379.34 807.95
  C 379.71 806.68 379.04 806.10 378.83 805.14
  Q 377.34 798.25 376.19 791.05
  Q 376.07 790.35 375.73 790.97
  Q 374.95 792.37 375.14 793.90
  A 1.22 1.20 61.0 0 1 374.90 794.76
  Q 374.24 795.60 374.53 796.71
  Q 374.67 797.23 374.35 797.66
  Q 373.59 798.69 373.92 799.98
  A 0.95 0.95 0.0 0 1 373.69 800.87
  Q 373.17 801.43 373.25 802.17
  Q 373.29 802.65 373.20 803.06
  L 371.28 811.69
  Q 371.22 811.94 371.04 812.17
  Q 370.89 812.36 370.83 812.64
  A 0.83 0.73 48.6 0 0 370.83 812.99
  Q 370.94 813.63 370.63 814.91
  Q 365.48 835.49 357.96 864.19
  A 0.32 0.31 7.1 0 0 358.27 864.58
  L 393.65 864.58
  Q 393.93 864.58 393.86 864.31
  L 385.67 832.86
  A 41.42 5.06 70.2 0 1 383.86 824.93
  Z"
/>
<path fill="#1a1a1a" d="
  M 511.36 912.57
  L 511.36 929.00
  A 0.35 0.35 0.0 0 1 511.01 929.35
  L 444.50 929.35
  A 0.35 0.35 0.0 0 1 444.15 929.00
  L 444.15 773.27
  A 0.35 0.35 0.0 0 1 444.50 772.92
  L 459.70 772.92
  A 0.35 0.35 0.0 0 1 460.05 773.27
  L 460.05 911.87
  A 0.35 0.35 0.0 0 0 460.40 912.22
  L 511.01 912.22
  A 0.35 0.35 0.0 0 1 511.36 912.57
  Z"
/>
<path fill="#1a1a1a" d="
  M 547.48 879.87
  Q 547.08 879.87 546.98 880.27
  L 534.82 928.90
  A 0.63 0.60 6.4 0 1 534.20 929.36
  L 519.19 929.38
  Q 518.67 929.38 518.80 928.90
  L 559.27 773.46
  Q 559.41 772.90 559.74 772.90
  L 576.93 772.92
  Q 578.02 772.92 578.30 773.98
  L 618.74 928.89
  A 0.41 0.31 80.9 0 1 618.47 929.40
  L 603.02 929.40
  Q 602.35 929.41 602.23 928.94
  L 589.74 880.67
  A 1.08 1.05 -6.9 0 0 588.70 879.88
  L 547.48 879.87
  Z
  M 576.30 824.99
  Q 576.25 824.72 574.51 818.51
  Q 572.91 812.80 572.35 809.47
  Q 572.30 809.18 572.21 809.05
  L 571.93 808.70
  Q 571.69 808.38 571.79 808.03
  C 572.16 806.76 571.50 806.18 571.29 805.22
  Q 569.80 798.34 568.65 791.15
  Q 568.54 790.45 568.20 791.07
  Q 567.42 792.47 567.61 793.99
  A 1.22 1.20 61.0 0 1 567.37 794.85
  Q 566.71 795.69 567.00 796.80
  Q 567.14 797.32 566.82 797.75
  Q 566.06 798.77 566.39 800.06
  A 0.95 0.95 0.0 0 1 566.16 800.95
  Q 565.63 801.51 565.71 802.25
  Q 565.75 802.73 565.66 803.15
  L 563.74 811.76
  Q 563.68 812.01 563.50 812.24
  Q 563.35 812.43 563.29 812.71
  A 0.83 0.73 48.6 0 0 563.29 813.06
  Q 563.40 813.70 563.09 814.97
  Q 557.94 835.52 550.43 864.19
  A 0.32 0.31 7.1 0 0 550.74 864.58
  L 586.07 864.59
  Q 586.35 864.59 586.28 864.32
  L 578.11 832.90
  A 41.36 5.05 70.2 0 1 576.30 824.99
  Z"
/>
<rect fill="#1a1a1a" x="736.81" y="772.92" width="15.86" height="156.42" rx="0.35"/>
<path fill="#1a1a1a" d="
  M 978.37 902.67
  Q 978.68 903.17 978.72 902.58
  Q 978.87 899.80 978.61 898.51
  Q 978.13 896.14 978.13 894.49
  C 978.13 890.68 978.44 887.95 977.66 886.32
  Q 977.52 886.02 977.52 885.73
  Q 977.50 876.85 977.52 869.12
  C 977.52 867.95 976.90 867.46 976.90 866.43
  Q 976.89 796.77 976.90 773.54
  Q 976.90 772.92 977.52 772.92
  L 991.26 772.92
  A 0.31 0.31 0.0 0 1 991.57 773.23
  L 991.57 928.98
  Q 991.57 929.36 991.19 929.36
  L 976.43 929.36
  Q 975.91 929.36 975.68 928.89
  Q 974.54 926.58 965.20 906.72
  Q 962.73 901.45 958.86 893.35
  Q 955.96 887.25 952.88 881.18
  C 951.13 877.71 949.23 873.20 947.16 869.30
  Q 946.44 867.94 943.14 860.70
  C 941.39 856.86 939.57 853.61 937.60 849.29
  Q 934.70 842.95 930.97 834.89
  Q 922.84 817.34 916.22 799.35
  Q 915.19 796.57 915.19 799.53
  L 915.19 806.73
  A 1.68 1.59 31.1 0 0 915.42 807.56
  Q 915.82 808.22 915.82 808.51
  Q 915.82 819.00 915.82 829.48
  Q 915.82 829.93 916.17 830.46
  Q 916.42 830.84 916.42 831.29
  L 916.41 928.77
  A 0.59 0.59 0.0 0 1 915.82 929.36
  L 902.31 929.36
  Q 901.74 929.36 901.74 928.79
  L 901.75 773.48
  Q 901.75 772.92 902.31 772.92
  L 918.11 772.92
  Q 918.62 772.92 918.84 773.38
  L 943.25 823.75
  Q 943.34 823.95 943.39 824.17
  Q 943.43 824.32 943.50 824.46
  Q 958.28 854.94 959.10 856.65
  Q 959.30 857.05 959.24 857.27
  Q 964.24 867.47 968.65 877.95
  Q 973.47 889.41 976.20 897.09
  Q 977.91 901.91 978.37 902.67
  Z"
/>
<path fill="#1a1a1a" d="
  M 1190.73 856.04
  Q 1190.11 856.04 1190.11 856.67
  L 1190.11 911.48
  Q 1190.11 912.23 1190.87 912.23
  L 1241.67 912.22
  Q 1242.06 912.22 1242.06 912.61
  L 1242.06 928.95
  A 0.40 0.40 0.0 0 1 1241.66 929.35
  L 1174.63 929.36
  Q 1174.23 929.36 1174.23 928.96
  L 1174.21 773.44
  Q 1174.21 772.92 1174.73 772.92
  L 1238.41 772.92
  A 0.57 0.55 -0.0 0 1 1238.98 773.47
  L 1238.98 789.74
  A 0.30 0.29 90.0 0 1 1238.69 790.04
  L 1190.59 790.05
  Q 1190.10 790.05 1190.10 790.54
  L 1190.11 839.02
  A 0.52 0.52 0.0 0 0 1190.63 839.54
  L 1236.12 839.54
  A 0.42 0.42 0.0 0 1 1236.54 839.96
  L 1236.57 855.45
  A 0.60 0.59 -0.0 0 1 1235.97 856.04
  L 1190.73 856.04
  Z"
/>
<rect fill="#1a1a1a" x="1386.84" y="772.92" width="15.86" height="156.42" rx="0.37"/>
<path fill="#1a1a1a" d="
  M 1556.05 790.05
  Q 1555.44 790.05 1555.44 790.66
  L 1555.45 928.79
  Q 1555.45 929.34 1554.91 929.34
  L 1540.19 929.34
  Q 1539.57 929.34 1539.57 928.72
  L 1539.58 790.39
  A 0.35 0.34 0.0 0 0 1539.23 790.05
  L 1504.03 790.05
  Q 1503.54 790.05 1503.54 789.56
  L 1503.53 773.54
  Q 1503.53 772.92 1504.17 772.92
  L 1591.72 772.92
  A 0.39 0.39 0.0 0 1 1592.11 773.31
  L 1592.11 789.55
  A 0.50 0.49 -90.0 0 1 1591.62 790.05
  L 1556.05 790.05
  Z"
/>
<path fill="#1a1a1a" d="
  M 1621.80 912.22
  L 1673.00 912.22
  A 0.37 0.37 0.0 0 1 1673.37 912.59
  L 1673.37 928.97
  A 0.37 0.37 0.0 0 1 1673.00 929.34
  L 1605.93 929.34
  A 0.37 0.37 0.0 0 1 1605.56 928.97
  L 1605.56 773.29
  A 0.37 0.37 0.0 0 1 1605.93 772.92
  L 1669.95 772.92
  A 0.37 0.37 0.0 0 1 1670.32 773.29
  L 1670.32 789.68
  A 0.37 0.37 0.0 0 1 1669.95 790.05
  L 1621.81 790.05
  A 0.37 0.37 0.0 0 0 1621.44 790.42
  L 1621.44 839.17
  A 0.37 0.37 0.0 0 0 1621.81 839.54
  L 1667.50 839.54
  A 0.37 0.37 0.0 0 1 1667.87 839.91
  L 1667.87 855.66
  A 0.37 0.37 0.0 0 1 1667.50 856.03
  L 1621.80 856.03
  A 0.37 0.37 0.0 0 0 1621.43 856.40
  L 1621.43 911.85
  A 0.37 0.37 0.0 0 0 1621.80 912.22
  Z"
/>
<path fill="#1a1a1a" d="
  M 1791.69 793.44
  A 0.31 0.23 6.6 0 0 1791.45 793.21
  L 1791.44 793.20
  Q 1791.22 793.16 1791.19 793.42
  Q 1790.72 797.42 1789.83 801.06
  Q 1783.35 827.74 1779.06 843.27
  Q 1771.92 869.05 1755.53 927.57
  A 0.76 0.76 0.0 0 1 1754.80 928.13
  L 1744.60 928.13
  A 1.29 1.28 83.5 0 1 1743.35 927.13
  Q 1742.02 921.34 1740.61 916.40
  Q 1739.72 913.28 1738.19 907.07
  Q 1736.30 899.42 1735.83 897.77
  Q 1735.29 895.88 1734.79 893.98
  Q 1721.46 843.37 1717.05 824.23
  Q 1715.52 817.57 1714.35 812.19
  A 16.58 0.25 78.2 0 0 1712.53 804.06
  Q 1711.94 801.62 1710.75 793.31
  Q 1710.73 793.23 1710.67 793.19
  Q 1710.53 793.10 1710.41 793.14
  Q 1710.29 793.18 1710.28 793.31
  Q 1709.87 800.61 1710.08 808.53
  Q 1710.12 810.13 1709.61 811.17
  Q 1709.41 811.57 1709.41 812.02
  L 1709.41 828.74
  Q 1709.41 829.23 1709.16 829.66
  Q 1708.95 830.01 1708.93 830.05
  Q 1708.82 830.25 1708.82 830.47
  Q 1708.79 839.35 1708.83 844.58
  C 1708.83 845.56 1708.33 846.46 1708.28 847.24
  Q 1708.07 850.48 1708.24 859.99
  A 1.30 1.30 0.0 0 1 1707.91 860.88
  Q 1707.58 861.24 1707.58 861.50
  Q 1707.62 867.11 1707.57 872.72
  A 1.71 1.65 -29.5 0 1 1707.30 873.63
  Q 1706.96 874.17 1706.96 874.50
  Q 1707.01 884.70 1706.82 885.73
  C 1706.68 886.50 1706.37 887.31 1706.37 887.96
  Q 1706.35 893.81 1706.36 898.29
  C 1706.37 899.20 1705.75 899.50 1705.75 900.31
  Q 1705.75 905.68 1705.76 910.96
  C 1705.76 911.77 1705.16 912.45 1705.15 913.00
  Q 1705.11 919.32 1705.16 922.57
  Q 1705.18 924.12 1704.63 925.90
  Q 1704.39 926.70 1704.55 928.80
  Q 1704.59 929.35 1704.04 929.35
  L 1690.52 929.35
  Q 1689.99 929.35 1689.92 928.83
  Q 1689.66 926.97 1690.03 925.25
  Q 1690.46 923.23 1690.46 921.73
  Q 1690.45 917.85 1690.45 913.97
  C 1690.45 913.08 1691.09 912.74 1691.08 911.95
  Q 1691.07 906.93 1691.11 901.92
  C 1691.12 901.48 1691.66 900.85 1691.67 900.18
  Q 1691.71 895.86 1691.67 891.54
  C 1691.66 890.43 1692.29 890.12 1692.30 889.14
  Q 1692.33 884.64 1692.31 880.20
  C 1692.31 879.22 1692.71 878.62 1692.87 877.76
  Q 1692.94 877.36 1692.90 867.87
  Q 1692.90 867.36 1693.22 866.97
  Q 1693.37 866.77 1693.49 866.56
  Q 1693.57 866.41 1693.57 865.94
  Q 1693.49 861.16 1693.56 856.38
  Q 1693.57 855.88 1693.82 855.45
  Q 1694.13 854.91 1694.13 854.63
  Q 1694.15 850.65 1694.13 846.68
  C 1694.12 845.11 1694.79 843.79 1694.77 842.39
  Q 1694.72 838.96 1694.75 833.43
  Q 1694.76 833.09 1694.98 832.83
  L 1695.20 832.57
  Q 1695.39 832.35 1695.38 832.06
  Q 1695.33 827.40 1695.37 822.14
  Q 1695.38 821.66 1695.53 821.39
  Q 1695.59 821.30 1695.73 821.10
  Q 1695.95 820.77 1695.95 820.38
  Q 1695.98 815.42 1695.95 811.53
  C 1695.93 809.98 1696.61 809.32 1696.60 807.99
  Q 1696.57 803.84 1696.59 799.70
  C 1696.59 798.73 1697.16 798.52 1697.17 797.69
  Q 1697.21 792.99 1697.16 788.29
  C 1697.15 787.16 1697.84 786.95 1697.83 785.89
  Q 1697.82 784.56 1697.81 776.16
  A 1.30 1.29 -26.3 0 1 1698.08 775.37
  Q 1698.63 774.65 1698.40 773.62
  Q 1698.24 772.91 1698.97 772.91
  L 1716.48 772.91
  Q 1717.66 772.91 1718.04 774.02
  Q 1719.88 779.34 1721.06 784.23
  Q 1722.40 789.81 1734.17 832.43
  Q 1742.92 864.09 1750.33 900.75
  Q 1750.42 901.20 1750.71 900.84
  Q 1751.86 899.41 1751.54 898.22
  Q 1751.39 897.69 1751.73 897.24
  Q 1752.37 896.39 1752.15 895.23
  Q 1752.04 894.70 1752.32 894.24
  Q 1752.99 893.14 1752.77 891.80
  A 1.07 1.07 0.0 0 1 1753.05 890.90
  Q 1753.43 890.48 1753.42 889.87
  Q 1753.41 889.09 1753.47 888.87
  Q 1759.76 862.15 1762.54 852.25
  Q 1770.17 824.99 1777.88 797.76
  Q 1779.39 792.42 1779.79 791.04
  Q 1782.36 782.30 1784.67 773.38
  Q 1784.79 772.92 1785.27 772.92
  L 1804.05 772.92
  Q 1804.66 772.92 1804.67 773.53
  Q 1804.82 778.81 1804.67 781.26
  Q 1804.61 782.12 1805.03 782.70
  Q 1805.29 783.06 1805.30 783.51
  L 1805.96 807.28
  Q 1805.97 807.76 1806.20 808.19
  Q 1806.57 808.88 1806.57 809.25
  Q 1806.54 814.86 1806.58 820.47
  Q 1806.59 820.87 1806.78 821.14
  L 1807.08 821.56
  A 0.44 0.38 -67.5 0 1 1807.14 821.74
  L 1807.81 845.98
  A 1.60 1.57 -63.5 0 0 1808.09 846.85
  Q 1808.22 847.04 1808.31 847.23
  Q 1808.39 847.41 1808.39 847.62
  Q 1808.38 853.05 1808.38 858.48
  C 1808.38 859.24 1808.85 859.88 1808.87 860.52
  Q 1808.94 862.47 1809.12 871.51
  C 1809.13 872.23 1809.58 873.05 1809.59 873.86
  Q 1809.63 879.25 1809.61 884.63
  Q 1809.61 884.99 1809.89 885.39
  Q 1810.17 885.80 1810.19 886.29
  L 1810.86 910.32
  A 1.36 1.32 24.6 0 0 1811.19 911.17
  Q 1811.31 911.29 1811.41 911.43
  Q 1811.47 911.51 1811.47 912.04
  Q 1811.43 914.91 1811.41 920.56
  Q 1811.40 922.44 1811.92 924.87
  Q 1812.32 926.75 1812.03 928.88
  Q 1811.97 929.35 1811.49 929.35
  L 1797.27 929.35
  Q 1796.78 929.35 1796.76 928.85
  L 1796.11 905.62
  A 1.24 1.23 23.9 0 0 1795.80 904.83
  Q 1795.69 904.70 1795.60 904.58
  Q 1795.53 904.49 1795.53 903.96
  Q 1795.58 898.96 1795.56 892.50
  C 1795.56 891.70 1794.96 891.18 1794.96 890.15
  Q 1794.94 878.79 1794.92 878.63
  C 1794.79 877.52 1794.32 876.84 1794.32 875.74
  Q 1794.33 875.02 1794.34 864.87
  C 1794.34 863.57 1793.70 863.20 1793.70 862.09
  Q 1793.73 853.90 1793.69 849.95
  C 1793.68 849.12 1793.12 848.33 1793.12 847.63
  Q 1793.11 840.17 1793.11 832.71
  C 1793.10 831.81 1792.50 831.48 1792.50 830.70
  Q 1792.50 819.64 1792.50 808.79
  A 1.68 1.62 -62.5 0 0 1792.23 807.88
  Q 1791.86 807.31 1791.86 807.01
  Q 1792.02 799.61 1791.69 793.44
  Z"
/>
<path fill="#1a1a1a" d="
  M 1853.08 879.85
  Q 1852.68 879.85 1852.58 880.25
  L 1840.44 928.88
  A 0.63 0.60 6.3 0 1 1839.83 929.34
  L 1824.81 929.36
  Q 1824.29 929.36 1824.42 928.88
  L 1864.80 773.46
  Q 1864.94 772.90 1865.27 772.90
  L 1882.46 772.91
  Q 1883.55 772.91 1883.83 773.97
  L 1924.34 928.81
  A 0.41 0.31 80.9 0 1 1924.07 929.33
  L 1908.62 929.34
  Q 1907.95 929.35 1907.83 928.88
  L 1895.32 880.63
  A 1.08 1.05 -6.9 0 0 1894.28 879.84
  L 1853.08 879.85
  Z
  M 1881.88 824.94
  Q 1881.83 824.67 1880.08 818.45
  Q 1878.49 812.74 1877.93 809.40
  Q 1877.88 809.11 1877.79 808.98
  L 1877.51 808.63
  Q 1877.27 808.31 1877.37 807.96
  C 1877.74 806.69 1877.07 806.11 1876.86 805.15
  Q 1875.37 798.25 1874.23 791.06
  Q 1874.11 790.36 1873.77 790.98
  Q 1872.99 792.38 1873.18 793.91
  A 1.22 1.20 61.0 0 1 1872.94 794.77
  Q 1872.28 795.60 1872.57 796.71
  Q 1872.71 797.23 1872.39 797.66
  Q 1871.63 798.69 1871.96 799.98
  A 0.95 0.95 0.0 0 1 1871.73 800.87
  Q 1871.20 801.43 1871.28 802.17
  Q 1871.32 802.65 1871.23 803.07
  L 1869.30 811.69
  Q 1869.24 811.94 1869.06 812.17
  Q 1868.91 812.36 1868.85 812.64
  A 0.83 0.73 48.6 0 0 1868.85 812.99
  Q 1868.96 813.63 1868.65 814.91
  Q 1863.50 835.49 1855.97 864.18
  A 0.32 0.31 7.1 0 0 1856.28 864.57
  L 1891.66 864.59
  Q 1891.94 864.59 1891.87 864.32
  L 1883.69 832.87
  A 41.41 5.06 70.2 0 1 1881.88 824.94
  Z"
/>
<path fill="#1a1a1a" d="
  M 2202.44 856.04
  Q 2201.82 856.04 2201.82 856.67
  L 2201.82 911.48
  Q 2201.82 912.23 2202.58 912.23
  L 2253.37 912.22
  Q 2253.76 912.22 2253.76 912.61
  L 2253.77 928.95
  A 0.40 0.40 0.0 0 1 2253.37 929.35
  L 2186.34 929.35
  Q 2185.94 929.35 2185.94 928.95
  L 2185.94 773.44
  Q 2185.94 772.92 2186.46 772.92
  L 2250.13 772.93
  A 0.57 0.55 -0.0 0 1 2250.70 773.48
  L 2250.69 789.75
  A 0.30 0.29 90.0 0 1 2250.40 790.05
  L 2202.31 790.05
  Q 2201.82 790.05 2201.82 790.54
  L 2201.82 839.03
  A 0.52 0.52 0.0 0 0 2202.34 839.55
  L 2247.84 839.54
  A 0.42 0.42 0.0 0 1 2248.26 839.96
  L 2248.28 855.45
  A 0.60 0.59 -0.0 0 1 2247.68 856.04
  L 2202.44 856.04
  Z"
/>
<path fill="#1a1a1a" d="
  M 2415.06 856.03
  Q 2414.44 856.03 2414.44 856.66
  L 2414.43 911.47
  Q 2414.43 912.22 2415.19 912.22
  L 2465.98 912.22
  Q 2466.37 912.22 2466.37 912.61
  L 2466.37 928.94
  A 0.40 0.40 0.0 0 1 2465.97 929.34
  L 2398.95 929.34
  Q 2398.55 929.34 2398.55 928.94
  L 2398.56 773.44
  Q 2398.56 772.92 2399.08 772.92
  L 2462.75 772.93
  A 0.57 0.55 -0.0 0 1 2463.32 773.48
  L 2463.31 789.75
  A 0.30 0.29 90.0 0 1 2463.02 790.05
  L 2414.93 790.05
  Q 2414.44 790.05 2414.44 790.54
  L 2414.44 839.02
  A 0.52 0.52 0.0 0 0 2414.96 839.54
  L 2460.45 839.54
  A 0.42 0.42 0.0 0 1 2460.87 839.96
  L 2460.89 855.45
  A 0.60 0.59 -0.0 0 1 2460.29 856.04
  L 2415.06 856.03
  Z"
/>
<path fill="#1a1a1a" d="
  M 2601.66 885.84
  Q 2601.42 885.58 2601.35 885.28
  C 2601.04 883.76 2601.75 882.97 2600.93 881.42
  Q 2600.69 880.97 2600.74 880.45
  Q 2601.02 877.57 2600.62 874.96
  Q 2600.16 871.99 2600.16 869.49
  Q 2600.15 802.06 2600.17 773.48
  Q 2600.17 772.92 2600.73 772.92
  L 2615.49 772.92
  Q 2616.04 772.92 2616.04 773.47
  Q 2616.08 788.56 2616.05 872.55
  Q 2616.05 874.10 2616.50 876.35
  Q 2616.84 878.08 2616.61 880.26
  Q 2616.53 880.98 2616.89 881.56
  Q 2617.15 881.97 2617.21 882.45
  Q 2618.38 892.48 2622.23 900.60
  Q 2626.19 908.95 2634.50 913.62
  C 2635.29 914.06 2636.55 914.11 2637.37 914.62
  Q 2637.81 914.89 2638.30 914.71
  Q 2639.12 914.42 2639.75 914.95
  A 1.46 1.45 -24.1 0 0 2640.71 915.31
  L 2646.73 915.31
  Q 2647.23 915.31 2647.66 915.05
  C 2648.73 914.42 2649.64 914.86 2650.76 914.47
  Q 2658.83 911.66 2663.13 905.38
  Q 2664.98 902.70 2666.53 899.87
  Q 2666.77 899.44 2666.82 898.94
  C 2666.92 897.74 2667.75 897.32 2667.98 896.53
  Q 2670.77 886.57 2671.34 881.81
  Q 2671.70 878.81 2671.59 878.00
  Q 2671.40 876.58 2672.04 875.37
  Q 2672.27 874.95 2672.27 874.47
  L 2672.27 773.20
  Q 2672.27 772.92 2672.55 772.92
  L 2687.53 772.92
  Q 2688.14 772.92 2688.14 773.53
  L 2688.14 870.98
  A 1.54 1.51 62.8 0 1 2687.87 871.85
  Q 2687.49 872.38 2687.49 872.75
  Q 2687.55 875.08 2687.56 878.73
  A 1.70 1.66 60.9 0 1 2687.31 879.65
  C 2686.56 880.91 2687.04 882.78 2686.79 883.99
  Q 2686.38 886.02 2686.36 886.11
  Q 2684.21 899.95 2678.60 910.39
  Q 2673.89 919.15 2666.09 924.83
  Q 2661.23 928.37 2654.33 930.29
  Q 2647.86 932.08 2639.77 931.81
  Q 2638.75 931.78 2637.83 931.39
  C 2636.87 930.99 2636.08 931.26 2635.09 931.06
  Q 2628.00 929.69 2621.92 925.77
  C 2619.60 924.27 2617.82 922.27 2615.43 919.88
  Q 2614.00 918.46 2613.08 917.25
  Q 2607.49 909.88 2604.72 900.01
  Q 2603.74 896.54 2603.55 895.70
  Q 2602.86 892.67 2602.53 891.37
  Q 2601.86 888.68 2601.97 886.71
  A 1.18 1.18 0.0 0 0 2601.66 885.84
  Z"
/>
<rect fill="#1a1a1a" x="2810.93" y="772.93" width="15.90" height="156.42" rx="0.39"/>
<path fill="#1a1a1a" d="
  M 2975.50 929.32
  L 2960.35 929.32
  A 0.34 0.34 0.0 0 1 2960.02 928.89
  L 3000.76 773.19
  A 0.34 0.34 0.0 0 1 3001.09 772.94
  L 3019.06 772.94
  A 0.34 0.34 0.0 0 1 3019.39 773.19
  L 3060.06 928.90
  A 0.34 0.34 0.0 0 1 3059.73 929.33
  L 3043.98 929.33
  A 0.34 0.34 0.0 0 1 3043.65 929.08
  L 3030.87 880.09
  A 0.34 0.34 0.0 0 0 3030.54 879.84
  L 2988.97 879.84
  A 0.34 0.34 0.0 0 0 2988.64 880.09
  L 2975.83 929.07
  A 0.34 0.34 0.0 0 1 2975.50 929.32
  Z
  M 3017.62 824.93
  Q 3017.57 824.66 3015.82 818.44
  Q 3014.22 812.72 3013.66 809.38
  Q 3013.61 809.09 3013.52 808.96
  L 3013.24 808.61
  Q 3013.00 808.29 3013.10 807.94
  C 3013.47 806.67 3012.80 806.09 3012.59 805.13
  Q 3011.10 798.23 3009.95 791.03
  Q 3009.83 790.33 3009.49 790.95
  Q 3008.71 792.35 3008.90 793.88
  A 1.22 1.20 61.0 0 1 3008.66 794.74
  Q 3008.00 795.58 3008.29 796.69
  Q 3008.43 797.21 3008.11 797.64
  Q 3007.35 798.67 3007.68 799.96
  A 0.95 0.95 0.0 0 1 3007.45 800.85
  Q 3006.92 801.41 3007.00 802.15
  Q 3007.04 802.63 3006.95 803.05
  L 3005.03 811.68
  Q 3004.97 811.93 3004.79 812.16
  Q 3004.64 812.35 3004.58 812.63
  A 0.83 0.73 48.6 0 0 3004.58 812.98
  Q 3004.69 813.62 3004.38 814.90
  Q 2999.23 835.49 2991.71 864.21
  A 0.32 0.31 7.1 0 0 2992.02 864.60
  L 3027.42 864.60
  Q 3027.70 864.60 3027.63 864.33
  L 3019.43 832.86
  A 41.44 5.06 70.2 0 1 3017.62 824.93
  Z"
/>
</svg>
